<svg width="264" height="48" fill="none" xmlns="http://www.w3.org/2000/svg"><path d="M26.16 12.288c.384 1.312.8 2.8 1.248 4.464.48 1.632.976 3.328 1.488 5.088l1.632 5.28c.544 1.76 1.072 3.392 1.584 4.896.416-1.632.832-3.408 1.248-5.328.448-1.92.864-3.904 1.248-5.952s.752-4.08 1.104-6.096c.384-2.048.736-4.016 1.056-5.904h7.776a327.843 327.843 0 01-3.888 16.944A237.091 237.091 0 0135.952 42h-6.864a226.078 226.078 0 01-3.264-9.648 1234.282 1234.282 0 01-3.12-10.176l-3.072 10.176A189.246 189.246 0 0116.416 42H9.552A256.022 256.022 0 014.8 25.68 363.613 363.613 0 01.96 8.736h8.112c.32 1.888.672 3.856 1.056 5.904a510.251 510.251 0 002.448 12.048c.448 1.92.896 3.696 1.344 5.328a100.946 100.946 0 001.68-4.992c.544-1.76 1.072-3.52 1.584-5.28.512-1.76.976-3.456 1.392-5.088l1.2-4.368h6.384zm21.516 17.28c0-2.24.336-4.192 1.008-5.856.704-1.696 1.616-3.104 2.736-4.224a11.34 11.34 0 013.84-2.544 12.284 12.284 0 014.512-.864c3.584 0 6.416 1.104 8.496 3.312 2.08 2.176 3.12 5.392 3.12 9.648 0 .416-.016.88-.048 1.392-.032.48-.064.912-.096 1.296H55.02c.16 1.472.848 2.64 2.064 3.504 1.216.864 2.848 1.296 4.896 1.296 1.312 0 2.592-.112 3.84-.336 1.28-.256 2.32-.56 3.12-.912l.96 5.808c-.384.192-.896.384-1.536.576-.64.192-1.36.352-2.16.48-.768.16-1.6.288-2.496.384-.896.096-1.792.144-2.688.144-2.272 0-4.256-.336-5.952-1.008-1.664-.672-3.056-1.584-4.176-2.736-1.088-1.184-1.904-2.576-2.448-4.176-.512-1.6-.768-3.328-.768-5.184zm16.8-2.736a6.705 6.705 0 00-.336-1.776 3.959 3.959 0 00-.816-1.536c-.352-.448-.816-.816-1.392-1.104-.544-.288-1.232-.432-2.064-.432-.8 0-1.488.144-2.064.432a4.01 4.01 0 00-1.44 1.056 5.135 5.135 0 00-.912 1.584 11.062 11.062 0 00-.432 1.776h9.456zm28.607 2.352c0-4.608-1.696-6.912-5.088-6.912-.736 0-1.472.096-2.208.288-.704.192-1.28.432-1.728.72v13.008c.352.064.8.128 1.344.192.544.032 1.136.048 1.776.048 1.952 0 3.424-.672 4.416-2.016.992-1.344 1.488-3.12 1.488-5.328zm7.296.192c0 2.016-.304 3.84-.912 5.472-.576 1.632-1.424 3.024-2.544 4.176-1.12 1.152-2.496 2.048-4.128 2.688-1.632.608-3.488.912-5.568.912-.864 0-1.776-.048-2.736-.144a41.03 41.03 0 01-2.784-.288 54.683 54.683 0 01-2.592-.432 35.689 35.689 0 01-2.208-.576V5.904l7.152-1.152v12.576c.8-.352 1.632-.624 2.496-.816a12.818 12.818 0 012.784-.288c1.792 0 3.376.32 4.752.96a9.084 9.084 0 013.456 2.64c.928 1.152 1.632 2.544 2.112 4.176.48 1.6.72 3.392.72 5.376zm38.783-21.024c4.992 0 8.816.896 11.472 2.688 2.656 1.76 3.984 4.512 3.984 8.256 0 2.336-.544 4.24-1.632 5.712-1.056 1.44-2.592 2.576-4.608 3.408a42.517 42.517 0 012.112 2.88 55.324 55.324 0 012.16 3.36 49.568 49.568 0 012.112 3.648A80.38 80.38 0 01156.634 42h-8.4a398.297 398.297 0 00-1.872-3.312 54.574 54.574 0 00-1.92-3.264 60.233 60.233 0 00-1.92-2.976 30.33 30.33 0 00-1.92-2.592h-3.696V42h-7.488V9.216a42.485 42.485 0 015.04-.672 65.597 65.597 0 014.704-.192zm.432 6.384c-.544 0-1.04.016-1.488.048-.416.032-.816.064-1.2.096v9.024h2.112c2.816 0 4.832-.352 6.048-1.056 1.216-.704 1.824-1.904 1.824-3.6 0-1.632-.624-2.784-1.872-3.456-1.216-.704-3.024-1.056-5.424-1.056zm44.976 14.592c0 1.984-.288 3.808-.864 5.472-.576 1.632-1.408 3.04-2.496 4.224-1.088 1.152-2.4 2.048-3.936 2.688-1.504.64-3.2.96-5.088.96-1.856 0-3.552-.32-5.088-.96a11.445 11.445 0 01-3.888-2.688c-1.088-1.184-1.936-2.592-2.544-4.224-.608-1.664-.912-3.488-.912-5.472 0-1.984.304-3.792.912-5.424.64-1.632 1.504-3.024 2.592-4.176a11.963 11.963 0 013.936-2.688c1.536-.64 3.2-.96 4.992-.96 1.824 0 3.488.32 4.992.96 1.536.64 2.848 1.536 3.936 2.688 1.088 1.152 1.936 2.544 2.544 4.176.608 1.632.912 3.44.912 5.424zm-7.296 0c0-2.208-.448-3.936-1.344-5.184-.864-1.28-2.112-1.92-3.744-1.92-1.632 0-2.896.64-3.792 1.92-.896 1.248-1.344 2.976-1.344 5.184s.448 3.968 1.344 5.28c.896 1.28 2.16 1.92 3.792 1.92 1.632 0 2.88-.64 3.744-1.92.896-1.312 1.344-3.072 1.344-5.28zm36.452 0c0 1.984-.288 3.808-.864 5.472-.576 1.632-1.408 3.04-2.496 4.224-1.088 1.152-2.4 2.048-3.936 2.688-1.504.64-3.2.96-5.088.96-1.856 0-3.552-.32-5.088-.96a11.445 11.445 0 01-3.888-2.688c-1.088-1.184-1.936-2.592-2.544-4.224-.608-1.664-.912-3.488-.912-5.472 0-1.984.304-3.792.912-5.424.64-1.632 1.504-3.024 2.592-4.176a11.963 11.963 0 013.936-2.688c1.536-.64 3.2-.96 4.992-.96 1.824 0 3.488.32 4.992.96 1.536.64 2.848 1.536 3.936 2.688 1.088 1.152 1.936 2.544 2.544 4.176.608 1.632.912 3.44.912 5.424zm-7.296 0c0-2.208-.448-3.936-1.344-5.184-.864-1.28-2.112-1.92-3.744-1.92-1.632 0-2.896.64-3.792 1.92-.896 1.248-1.344 2.976-1.344 5.184s.448 3.968 1.344 5.28c.896 1.28 2.16 1.92 3.792 1.92 1.632 0 2.88-.64 3.744-1.92.896-1.312 1.344-3.072 1.344-5.28zm12.596-18.864l7.152-1.152v7.44h8.592v5.952h-8.592v8.88c0 1.504.256 2.704.768 3.6.544.896 1.616 1.344 3.216 1.344.768 0 1.552-.064 2.352-.192.832-.16 1.584-.368 2.256-.624l1.008 5.568c-.864.352-1.824.656-2.88.912-1.056.256-2.352.384-3.888.384-1.952 0-3.568-.256-4.848-.768-1.28-.544-2.304-1.28-3.072-2.208-.768-.96-1.312-2.112-1.632-3.456-.288-1.344-.432-2.832-.432-4.464V10.464zm28.816 26.4c1.312 0 2.24-.128 2.784-.384.544-.256.816-.752.816-1.488 0-.576-.352-1.072-1.056-1.488-.704-.448-1.776-.944-3.216-1.488a35.563 35.563 0 01-3.072-1.296c-.896-.448-1.664-.976-2.304-1.584a6.76 6.76 0 01-1.488-2.256c-.352-.864-.528-1.904-.528-3.12 0-2.368.88-4.24 2.64-5.616 1.76-1.376 4.176-2.064 7.248-2.064 1.536 0 3.008.144 4.416.432 1.408.256 2.528.544 3.36.864l-1.248 5.568a25.657 25.657 0 00-2.736-.768c-.96-.224-2.048-.336-3.264-.336-2.24 0-3.36.624-3.36 1.872 0 .288.048.544.144.768.096.224.288.448.576.672.288.192.672.416 1.152.672.512.224 1.152.48 1.92.768 1.568.576 2.864 1.152 3.888 1.728 1.024.544 1.824 1.152 2.4 1.824a5.104 5.104 0 011.248 2.16c.256.8.384 1.728.384 2.784 0 2.496-.944 4.384-2.832 5.664-1.856 1.28-4.496 1.92-7.92 1.92-2.24 0-4.112-.192-5.616-.576-1.472-.384-2.496-.704-3.072-.96l1.2-5.808c1.216.48 2.464.864 3.744 1.152a19.3 19.3 0 003.792.384z" fill="#fff"/><path stroke="#fff" stroke-width="5" d="M106 27.5h18"/></svg>