<svg width="12" height="189" fill="none" xmlns="http://www.w3.org/2000/svg"><path d="M8.812 6.832c.215-.392.392-.793.532-1.204.14-.401.21-.78.21-1.134 0-.439-.089-.784-.266-1.036-.177-.252-.443-.378-.798-.378a.932.932 0 00-.658.28 3.036 3.036 0 00-.504.742 10.8 10.8 0 00-.406.952 6.796 6.796 0 01-.406.882c-.15.299-.34.565-.574.798-.224.233-.509.42-.854.56-.336.14-.751.21-1.246.21a2.765 2.765 0 01-1.456-.406c-.448-.27-.812-.667-1.092-1.19-.27-.523-.406-1.167-.406-1.932 0-.392.037-.793.112-1.204.084-.401.205-.798.364-1.19.168-.392.378-.77.63-1.134l1.582.896a5.477 5.477 0 00-.476.784c-.13.29-.233.579-.308.868-.075.29-.112.555-.112.798s.033.485.098.728c.075.252.196.457.364.616.168.168.401.252.7.252.205 0 .392-.07.56-.21.168-.13.322-.313.462-.546a4.23 4.23 0 00.364-.742c.121-.317.261-.644.42-.98a5.49 5.49 0 01.574-.952c.233-.29.518-.527.854-.714.345-.177.765-.266 1.26-.266.597 0 1.115.13 1.554.392.439.27.784.649 1.036 1.134.261.485.406 1.045.434 1.68 0 .83-.098 1.503-.294 2.016a7 7 0 01-.7 1.4l-1.554-.77zM1.854 17.64c-.093-.112-.22-.322-.378-.63a5.5 5.5 0 01-.42-1.106 5.115 5.115 0 01-.168-1.456c.019-.812.163-1.54.434-2.184a4.936 4.936 0 011.134-1.624 5.013 5.013 0 011.638-1.008 5.526 5.526 0 011.974-.35 6.37 6.37 0 012.156.35 5.075 5.075 0 011.694 1.022c.476.448.845.98 1.106 1.596.261.616.392 1.297.392 2.044 0 .69-.093 1.302-.28 1.834-.187.532-.387.966-.602 1.302l-1.918-.798a5.4 5.4 0 00.546-.938c.196-.383.294-.826.294-1.33 0-.392-.084-.77-.252-1.134a2.948 2.948 0 00-.686-.952 3.418 3.418 0 00-1.05-.644 3.401 3.401 0 00-1.288-.238c-.495 0-.947.07-1.358.21-.41.15-.765.36-1.064.63-.29.27-.513.593-.672.966a3.334 3.334 0 00-.238 1.288c0 .55.089 1.022.266 1.414.177.392.364.69.56.896l-1.82.84zm9.45 5.576c0 .644-.084 1.218-.252 1.722a3.3 3.3 0 01-.7 1.26 2.871 2.871 0 01-1.092.784 3.64 3.64 0 01-1.428.266c-.42 0-.84-.066-1.26-.196a3.119 3.119 0 01-1.148-.616c-.345-.28-.625-.654-.84-1.12-.205-.467-.308-1.046-.308-1.736v-1.456H1v-2.03h10.304v3.122zm-5.068.35c0 .308.051.565.154.77.103.205.233.364.392.476.159.121.322.205.49.252.177.056.34.084.49.084a2 2 0 00.42-.056 1.54 1.54 0 00.532-.196 1.23 1.23 0 00.448-.476c.121-.206.182-.486.182-.84v-1.456H6.236v1.442zm-1.26 1.904L1 28.018v-2.366l3.92-2.604.056 2.422zm1.162 3.656c.71 0 1.381.135 2.016.406a5.405 5.405 0 012.842 2.8c.28.635.42 1.316.42 2.044 0 .719-.14 1.395-.42 2.03a5.367 5.367 0 01-1.162 1.68 5.177 5.177 0 01-1.68 1.148 4.94 4.94 0 01-2.016.42c-.728 0-1.41-.14-2.044-.42a5.177 5.177 0 01-1.68-1.148 5.404 5.404 0 01-1.12-1.68 5.12 5.12 0 01-.406-2.03c0-.728.135-1.41.406-2.044a5.404 5.404 0 011.12-1.68 5.405 5.405 0 011.68-1.12 5.155 5.155 0 012.044-.406zm0 2.1c-.457 0-.887.08-1.288.238a3.583 3.583 0 00-1.05.686 3.33 3.33 0 00-.7 1.022 3.2 3.2 0 00-.252 1.274c0 .439.084.845.252 1.218a3 3 0 00.7.994c.308.28.658.5 1.05.658.401.159.83.238 1.288.238.467 0 .9-.084 1.302-.252a3.164 3.164 0 001.05-.672c.308-.28.546-.611.714-.994.168-.383.252-.798.252-1.246 0-.448-.084-.863-.252-1.246a3.055 3.055 0 00-.714-1.008 3.164 3.164 0 00-1.05-.672 3.509 3.509 0 00-1.302-.238zm5.166 10.872v2.03H2.96v4.844H1v-6.874h10.304zm0 9.389v2.03H2.96v4.844H1v-6.874h10.304zM1 65.848h10.304v3.08c0 1.036-.154 1.918-.462 2.646-.308.728-.719 1.311-1.232 1.75a4.88 4.88 0 01-1.722.98 6.195 6.195 0 01-1.918.308c-.765 0-1.456-.14-2.072-.42a4.724 4.724 0 01-1.568-1.12 5.103 5.103 0 01-.994-1.652A5.85 5.85 0 011 69.432v-3.584zm1.96 2.03v1.204c0 .514.065.98.196 1.4.14.42.34.78.602 1.078.261.308.588.541.98.7.401.168.859.252 1.372.252.672 0 1.218-.112 1.638-.336.43-.215.76-.485.994-.812a2.8 2.8 0 00.476-.98c.093-.336.14-.62.14-.854v-1.652H2.96zm3.178 8.56c.71 0 1.381.136 2.016.407a5.405 5.405 0 012.842 2.8c.28.635.42 1.316.42 2.044 0 .719-.14 1.395-.42 2.03a5.367 5.367 0 01-1.162 1.68 5.177 5.177 0 01-1.68 1.148 4.94 4.94 0 01-2.016.42c-.728 0-1.41-.14-2.044-.42a5.177 5.177 0 01-1.68-1.148 5.404 5.404 0 01-1.12-1.68 5.12 5.12 0 01-.406-2.03c0-.728.135-1.41.406-2.044a5.404 5.404 0 011.12-1.68 5.405 5.405 0 011.68-1.12 5.155 5.155 0 012.044-.406zm0 2.1c-.457 0-.887.08-1.288.239a3.583 3.583 0 00-1.05.686 3.33 3.33 0 00-.7 1.022 3.2 3.2 0 00-.252 1.274c0 .439.084.845.252 1.218a3 3 0 00.7.994c.308.28.658.5 1.05.658.401.159.83.238 1.288.238.467 0 .9-.084 1.302-.252a3.164 3.164 0 001.05-.672c.308-.28.546-.611.714-.994.168-.383.252-.798.252-1.246 0-.448-.084-.863-.252-1.246a3.055 3.055 0 00-.714-1.008 3.164 3.164 0 00-1.05-.672 3.509 3.509 0 00-1.302-.238zm5.096 9.157v2.38l-6.468 2.198.14-.322 4.774 1.918-2.786.938-6.37-2.968 10.71-4.144zm0 5.166v2.016L4.976 97.41l.056-.364 6.202 1.89v2.184L.552 97.145l10.682-4.284zM.58 112.55l7.056-7.812-.336.602-6.3.042v-2.058h10.71v.084l-7.028 7.644.196-.448 6.426-.042v2.044H.58v-.056z" fill="#333"/><path d="M8.812 6.832l-.877-.48-.5.913.933.463.444-.896zm.532-1.204l-.944-.33-.003.007.947.323zm-.056-2.17l.818-.575-.818.575zM7.832 3.36l-.69-.724-.017.017-.017.017.724.69zm-.504.742l-.894-.447-.006.01.9.437zm-.406.952l.936.351.001-.003-.937-.348zm-.406.882l-.877-.48-.009.016-.008.017.894.447zm-.574.798l-.707-.707-.007.007-.007.007.721.693zm-.854.56l-.376-.927-.009.004.385.923zm-2.702-.196l-.517.856.517-.856zm-1.092-1.19l-.888.46.007.012.881-.472zM1 2.772l-.979-.205-.003.013-.002.013.984.179zm.364-1.19l-.92-.394-.003.01-.004.009.927.375zm.63-1.134l.493-.87-.795-.45-.52.75.822.57zm1.582.896l.807.59.663-.907-.977-.553-.493.87zm-.476.784l-.894-.447-.01.017-.007.018.911.412zm-.308.868l.968.25-.968-.25zm-.014 1.526l-.966.26.004.012.003.012.959-.284zm.364.616l.707-.707-.01-.01-.01-.01-.687.727zm1.26.042l-.614-.79-.013.011-.013.01.64.769zm.462-.546l-.848-.53-.005.008-.004.008.857.514zm.364-.742l-.934-.357-.001.002.935.355zm.42-.98l-.904-.427.904.427zm.574-.952l-.778-.628-.011.014-.011.014.8.6zm.854-.714l-.457-.89-.014.008-.015.008.486.874zm2.814.126l.525-.851-.006-.004-.007-.004-.512.859zm1.036 1.134l-.887.46.003.007.004.007.88-.474zm.434 1.68h1v-.022l-.001-.022-.999.044zm-.294 2.016l-.934-.357-.002.006.936.351zm-.7 1.4l-.444.896.792.393.487-.739-.835-.55zm-.677-.29c.242-.44.442-.895.601-1.361l-1.893-.646a6.63 6.63 0 01-.462 1.047l1.754.96zm.6-1.355c.169-.486.265-.976.265-1.463h-2c0 .223-.044.489-.154.805l1.888.658zm.265-1.463c0-.56-.112-1.133-.448-1.611L8.47 4.033c.018.026.084.144.084.461h2zm-.448-1.611C9.71 2.32 9.113 2.08 8.49 2.08v2c.06 0 .063.01.037-.002a.176.176 0 01-.057-.045l1.636-1.15zM8.49 2.08c-.53 0-.989.214-1.348.556l1.38 1.448a.171.171 0 01.02-.017c.002-.002 0 0-.007.003a.13.13 0 01-.045.01v-2zm-1.382.59a4.03 4.03 0 00-.674.985l1.788.894c.115-.23.23-.39.334-.5L7.108 2.67zm-.68.996a11.8 11.8 0 00-.443 1.04l1.874.696c.11-.297.234-.585.369-.864l-1.8-.872zm-.442 1.037a5.81 5.81 0 01-.347.752l1.754.962c.18-.33.336-.667.465-1.012l-1.872-.702zm-.364.786a2.06 2.06 0 01-.387.538L6.649 7.44c.31-.31.565-.664.761-1.058L5.622 5.49zm-.401.552a1.428 1.428 0 01-.509.326l.752 1.854a3.426 3.426 0 001.2-.794L5.22 6.04zm-.518.33c-.178.074-.454.133-.861.133v2c.582 0 1.137-.081 1.63-.287l-.769-1.846zm-.861.133c-.34 0-.647-.085-.939-.262L1.87 7.954c.604.365 1.268.55 1.973.55v-2zm-.939-.262c-.275-.166-.52-.42-.728-.806L.413 6.38c.353.66.835 1.199 1.456 1.574l1.034-1.712zm-.721-.794c-.178-.344-.294-.82-.294-1.472h-2c0 .879.155 1.69.518 2.392l1.776-.92zm-.294-1.472c0-.328.031-.67.096-1.025L.016 2.593a7.723 7.723 0 00-.128 1.383h2zm.09-1c.072-.34.176-.68.313-1.019l-1.854-.75c-.18.445-.32.899-.416 1.36l1.958.41zm.305-1c.14-.328.318-.648.533-.959L1.172-.12a7.461 7.461 0 00-.727 1.31l1.838.787zm-.782-.658l1.582.896.986-1.74-1.582-.896-.986 1.74zM2.77.754c-.212.29-.4.599-.563.927l1.788.894c.116-.232.246-.445.39-.641L2.768.754zm-.58.962a6.366 6.366 0 00-.365 1.03l1.936.5c.06-.23.143-.466.251-.706L2.19 1.716zm-.365 1.03a4.206 4.206 0 00-.144 1.048h2c0-.142.022-.322.08-.548l-1.936-.5zM1.68 3.794c0 .334.045.664.132.988l1.932-.52a1.79 1.79 0 01-.064-.468h-2zm.14 1.012c.117.397.322.763.635 1.059L3.83 4.411a.368.368 0 01-.092-.173l-1.918.568zm.615 1.04c.4.4.915.544 1.407.544v-2c-.057 0-.072-.008-.06-.004a.214.214 0 01.067.045L2.435 5.845zm1.407.544c.455 0 .865-.163 1.2-.442l-1.28-1.536c-.006.005.001-.003.023-.01a.17.17 0 01.057-.012v2zm1.174-.42c.288-.225.519-.51.705-.821l-1.714-1.03a.98.98 0 01-.219.272l1.228 1.578zm.696-.806c.178-.284.327-.591.451-.917l-1.87-.71a3.22 3.22 0 01-.277.567l1.696 1.06zm.45-.915a13.3 13.3 0 01.39-.91l-1.808-.854a14.79 14.79 0 00-.45 1.05l1.868.714zm.39-.91a4.49 4.49 0 01.47-.779l-1.6-1.2a6.49 6.49 0 00-.678 1.125l1.808.854zM7 2.588c.15-.186.334-.342.562-.468L6.59.372c-.444.247-.83.567-1.146.96L7 2.588zm.533-.452c.17-.088.425-.156.803-.156v-2c-.611 0-1.197.11-1.717.376l.914 1.78zm.803-.156c.448 0 .783.097 1.042.251L10.402.513C9.784.145 9.082-.02 8.336-.02v2zm1.029.243c.275.17.5.409.674.744l1.774-.922A3.834 3.834 0 0010.415.521l-1.05 1.702zm.68.757c.18.334.294.743.316 1.25l1.998-.088c-.034-.762-.21-1.473-.553-2.11l-1.76.948zm.315 1.206c0 .765-.092 1.303-.228 1.66L12 6.558c.256-.67.36-1.477.36-2.373h-2zm-.23 1.665c-.174.462-.375.86-.599 1.2l1.67 1.101c.317-.48.582-1.015.801-1.599l-1.872-.702zm.68.855l-1.554-.77-.888 1.792 1.554.77.888-1.792zM1.854 17.64l-.768.64.49.59.697-.322-.419-.908zm-.378-.63l.89-.458-.007-.011-.883.47zm-.42-1.106l.964-.267-.964.267zm-.168-1.456l-1-.023v.006l1 .017zm.434-2.184l-.915-.403-.003.007-.004.009.922.387zm1.134-1.624l-.678-.735-.007.007.685.728zm1.638-1.008l.354.935-.354-.935zm4.13 0l.348-.937-.012-.005-.336.942zm1.694 1.022l.685-.728-.007-.007-.678.735zm1.106 1.596l-.92.39.92-.39zm.112 3.878l.944.331-.944-.33zm-.602 1.302l-.384.923.775.323.452-.707-.843-.539zm-1.918-.798l-.796-.605-.784 1.031 1.196.497.384-.923zm.546-.938l-.89-.456-.007.013-.006.013.903.43zm.042-2.464l-.913.409.005.01.908-.419zm-.686-.952l.684-.73-.006-.005-.006-.006-.672.741zm-1.05-.644l-.375.927.007.003.368-.93zm-2.646-.028l-.323-.946-.01.003-.009.003.342.94zm-1.064.63l-.672-.74-.005.004-.006.006.683.73zm-.672.966l-.92-.391-.004.008.924.383zm.028 2.702l.911-.412-.911.412zm.56.896l.42.908 1.27-.586-.967-1.012-.723.69zm-1.052.2c.001.001-.023-.03-.075-.116a6.071 6.071 0 01-.182-.332l-1.778.916c.159.309.328.607.499.812L2.622 17zm-.263-.459a4.523 4.523 0 01-.34-.904l-1.927.534c.135.486.299.928.5 1.308l1.767-.938zm-.34-.904a4.12 4.12 0 01-.131-1.171l-2-.035a6.11 6.11 0 00.204 1.74l1.928-.534zm-.131-1.166c.016-.707.141-1.308.356-1.82L.4 11.878c-.326.776-.49 1.63-.512 2.548l2 .046zm.349-1.803c.23-.52.532-.949.904-1.3l-1.37-1.456A5.937 5.937 0 00.407 11.86l1.83.808zm.897-1.292a4.01 4.01 0 011.314-.809l-.708-1.87c-.734.278-1.39.68-1.962 1.208l1.356 1.47zm1.314-.809a4.525 4.525 0 011.62-.285v-2c-.813 0-1.592.136-2.328.415l.708 1.87zm1.62-.285c.684 0 1.287.102 1.82.292L8.56 8.69a7.368 7.368 0 00-2.492-.408v2zm1.808.287c.54.201.991.476 1.364.82l1.356-1.47a6.075 6.075 0 00-2.024-1.224l-.696 1.874zm1.357.813c.372.351.662.767.87 1.259l1.842-.781a5.669 5.669 0 00-1.342-1.934l-1.37 1.456zm.87 1.259c.204.479.313 1.025.313 1.653h2a6.18 6.18 0 00-.471-2.434l-1.842.78zm.313 1.653c0 .602-.082 1.098-.224 1.503l1.888.662c.23-.66.336-1.386.336-2.165h-2zm-.224 1.503c-.17.487-.34.844-.5 1.095l1.685 1.076c.269-.421.5-.931.703-1.509l-1.888-.662zm.726.71L9 15.709l-.768 1.846 1.918.798.768-1.846zm-1.506.73c.234-.307.45-.686.653-1.113l-1.806-.86c-.17.357-.318.604-.44.763l1.593 1.21zm.64-1.087c.28-.546.404-1.15.404-1.786h-2c0 .373-.072.655-.184.874l1.78.912zm.404-1.786c0-.54-.117-1.06-.344-1.553l-1.816.838c.109.236.16.471.16.715h2zm-.34-1.542a3.946 3.946 0 00-.914-1.273l-1.368 1.459c.207.194.356.403.457.63l1.826-.816zm-.926-1.285a4.42 4.42 0 00-1.354-.833l-.736 1.86c.298.118.543.27.746.455l1.344-1.482zm-1.347-.83a4.4 4.4 0 00-1.663-.31v2a2.4 2.4 0 01.913.164l.75-1.854zm-1.663-.31c-.59 0-1.153.083-1.68.263l.645 1.893c.293-.1.635-.157 1.035-.157v-2zm-1.7.27c-.522.19-.991.463-1.394.828l1.344 1.482c.194-.177.435-.322.734-.431l-.684-1.88zm-1.405.839a3.813 3.813 0 00-.91 1.305l1.841.782c.106-.248.25-.454.435-.627l-1.366-1.46zm-.913 1.313a4.331 4.331 0 00-.314 1.671h2c0-.364.06-.66.162-.905l-1.848-.766zm-.314 1.671c0 .655.105 1.274.355 1.826l1.822-.824c-.105-.232-.177-.555-.177-1.002h-2zm.355 1.826c.202.448.445.857.748 1.175l1.446-1.381c-.089-.093-.22-.281-.372-.618l-1.822.824zm1.052-.424l-1.82.84.838 1.816 1.82-.84-.838-1.816zm7.797 9.046l-.949-.316-.002.008-.003.008.954.3zm-.7 1.26l-.737-.676-.01.01-.01.012.757.654zm-1.092.784l-.382-.924-.007.003.389.92zm-2.688.07l.297-.955-.01-.003-.01-.003-.277.96zm-1.148-.616l.642-.767-.006-.005-.006-.005-.63.777zm-.84-1.12l-.915.403.003.007.004.008.908-.418zm-.308-3.192h1v-1h-1v1zm-3.276 0H0v1h1v-1zm0-2.03v-1H0v1h1zm10.304 0h1v-1h-1v1zM6.39 24.336l-.894.447.894-.447zm.392.476l.607-.795-.015-.011-.015-.011-.577.817zm.49.252l.301-.954-.017-.005-.016-.005-.268.964zm.91.028l-.156-.988-.03.005-.03.007.216.976zm.532-.196l-.501-.866.501.866zm.448-.476l-.86-.509-.006.008-.005.009.871.492zm.182-2.296h1v-1h-1v1zm-3.108 0v-1h-1v1h1zm-1.26 3.346l.54.842.473-.303-.013-.562-1 .023zM1 28.018H0v1.828l1.54-.986-.54-.842zm0-2.366l-.553-.833-.447.297v.536h1zm3.92-2.604l1-.023-.042-1.814-1.511 1.004.553.833zm5.384.168c0 .558-.073 1.023-.2 1.406l1.897.632c.208-.625.303-1.309.303-2.038h-2zm-.206 1.421c-.122.387-.289.673-.483.885l1.474 1.352c.421-.46.721-1.014.917-1.636l-1.908-.6zm-.502.907c-.195.225-.43.395-.718.514l.764 1.848a3.872 3.872 0 001.466-1.054l-1.512-1.308zm-.725.517a2.647 2.647 0 01-1.039.187v2a4.64 4.64 0 001.817-.345l-.778-1.842zm-1.039.187c-.315 0-.635-.049-.963-.151l-.594 1.91a5.22 5.22 0 001.557.24v-2zm-.982-.157a2.12 2.12 0 01-.784-.422l-1.284 1.533a4.1 4.1 0 001.512.81l.556-1.92zm-.796-.432c-.21-.17-.401-.412-.562-.761l-1.816.836a4.05 4.05 0 001.118 1.479l1.26-1.554zm-.555-.746c-.133-.303-.223-.735-.223-1.333h-2c0 .783.115 1.509.393 2.139l1.83-.806zm-.223-1.333v-1.456h-2v1.456h2zm-1-2.456H1v2h3.276v-2zm-2.276 1v-2.03H0v2.03h2zm-1-1.03h10.304v-2H1v2zm9.304-1v3.122h2v-3.122h-2zm-5.068 3.472c0 .413.068.834.26 1.217l1.788-.894c-.013-.028-.048-.12-.048-.323h-2zm.26 1.217c.163.326.393.623.71.846l1.153-1.634c-.002-.001-.032-.022-.075-.106l-1.788.894zm.679.823c.245.188.522.336.83.421L7.54 24.1a.456.456 0 01-.15-.083l-1.215 1.59zm.796.411c.252.08.518.13.791.13v-2a.664.664 0 01-.189-.037l-.602 1.907zm.791.13c.213 0 .431-.033.637-.079l-.434-1.952c-.13.029-.192.032-.203.032v2zm.576-.067c.315-.05.608-.163.877-.319l-1.002-1.73a.551.551 0 01-.187.073l.312 1.976zm.877-.319c.36-.208.626-.51.818-.85l-1.742-.983a.452.452 0 01-.078.102l1.002 1.731zm.808-.832c.246-.417.321-.897.321-1.35h-2c0 .258-.047.338-.043.332l1.722 1.018zm.321-1.35v-1.455h-2v1.456h2zm-1-2.455H6.236v2h3.108v-2zm-4.108 1v1.442h2v-1.442h-2zm-.8 2.504L.46 27.176l1.08 1.684 3.976-2.548-1.08-1.684zM2 28.018v-2.366H0v2.366h2zm-.447-1.533l3.92-2.604-1.106-1.666-3.92 2.604 1.106 1.666zM3.92 23.07l.056 2.422 2-.046-.056-2.422-2 .046zm4.234 6.461l-.392.92.392-.92zm1.68 1.12l.7-.714-.7.714zm1.162 1.68l.915-.404-.915.404zm0 4.074l.915.404-.915-.404zm-1.162 1.68l-.7-.714-.007.007-.007.007.714.7zm-1.68 1.148l-.392-.92-.012.005.404.915zm-4.06 0l.404-.915-.012-.005-.392.92zm-1.68-1.148l-.714.7.714-.7zm-1.12-1.68l-.92.392.92-.392zm0-4.074l.92.392-.92-.392zm1.12-1.68l-.7-.714-.007.007-.007.007.714.7zm1.68-1.12l.392.92-.392-.92zm.756 1.932l-.368-.93-.013.005-.013.006.394.919zm-1.05.686l-.685-.729-.011.01-.011.012.707.707zm-.7 1.022l-.916-.402-.003.008.919.394zm0 2.492l.916-.402-.004-.008-.912.41zm.7.994l-.684.73.006.005.005.005.673-.74zm1.05.658l-.375.927.007.003.368-.93zm2.59-.014l-.368-.93-.009.004-.01.004.387.922zm1.05-.672l-.673-.74-.011.01-.012.012.696.718zm.714-.994l-.916-.402.916.402zm-.714-3.5l-.696.718.006.006.005.005.685-.729zm-1.05-.672l-.368.93.368-.93zm-1.302-1.338c.578 0 1.117.11 1.624.326l.784-1.84a6.085 6.085 0 00-2.408-.486v2zm1.624.326c.522.222.977.526 1.372.914l1.4-1.428a6.403 6.403 0 00-1.988-1.326l-.784 1.84zm1.372.914c.404.396.718.85.947 1.37l1.83-.808a6.366 6.366 0 00-1.377-1.99l-1.4 1.428zm.947 1.37c.221.5.335 1.044.335 1.64h2c0-.86-.166-1.68-.505-2.448l-1.83.808zm.335 1.64a3.97 3.97 0 01-.335 1.626l1.83.808a5.972 5.972 0 00.505-2.434h-2zm-.335 1.626a4.369 4.369 0 01-.947 1.37l1.4 1.428a6.365 6.365 0 001.377-1.99l-1.83-.808zm-.96 1.384a4.18 4.18 0 01-1.36.928l.785 1.84a6.178 6.178 0 002.002-1.368l-1.428-1.4zm-1.37.933a3.94 3.94 0 01-1.613.335v2a5.94 5.94 0 002.42-.505l-.808-1.83zm-1.613.335c-.596 0-1.14-.114-1.64-.335l-.808 1.83a6.006 6.006 0 002.448.505v-2zm-1.652-.34a4.18 4.18 0 01-1.358-.928l-1.428 1.4a6.178 6.178 0 002.002 1.368l.784-1.84zm-1.358-.928a4.405 4.405 0 01-.914-1.372l-1.84.784A6.404 6.404 0 001.7 38.786l1.428-1.4zm-.914-1.372a4.12 4.12 0 01-.326-1.638h-2c0 .848.16 1.659.486 2.422l1.84-.784zm-.326-1.638c0-.6.111-1.148.326-1.652l-1.84-.784a6.155 6.155 0 00-.486 2.436h2zm.326-1.652c.222-.522.526-.977.914-1.372l-1.428-1.4A6.404 6.404 0 00.374 31.94l1.84.784zm.9-1.358a4.4 4.4 0 011.372-.914l-.784-1.84a6.404 6.404 0 00-1.988 1.326l1.4 1.428zm1.372-.914a4.156 4.156 0 011.652-.326v-2c-.855 0-1.67.16-2.436.486l.784 1.84zm1.652-.226c-.576 0-1.13.1-1.656.308l.736 1.86c.277-.11.58-.168.92-.168v-2zm-1.682.319a4.581 4.581 0 00-1.34.876l1.369 1.458a2.58 2.58 0 01.759-.496l-.788-1.838zm-1.363.898c-.386.385-.69.83-.909 1.327l1.832.804c.117-.268.28-.505.491-.717l-1.414-1.414zm-.912 1.335a4.2 4.2 0 00-.333 1.668h2c0-.332.06-.621.171-.88l-1.838-.788zm-.333 1.668c0 .57.11 1.117.34 1.628l1.824-.82a1.935 1.935 0 01-.164-.808h-2zm.336 1.62a4 4 0 00.932 1.322l1.368-1.46a2.001 2.001 0 01-.468-.666l-1.832.804zm.943 1.332c.397.36.848.643 1.348.845l.75-1.854a2.5 2.5 0 01-.752-.47l-1.346 1.479zm1.355.848c.526.208 1.08.308 1.656.308v-2c-.34 0-.643-.058-.92-.168l-.736 1.86zm1.656.308a4.33 4.33 0 001.688-.33l-.772-1.844a2.34 2.34 0 01-.916.174v2zm1.67-.322c.519-.205.981-.5 1.378-.884l-1.392-1.436c-.2.194-.438.348-.722.46l.736 1.86zm1.355-.862c.412-.375.732-.821.957-1.332l-1.832-.804a1.91 1.91 0 01-.47.656l1.345 1.48zm.957-1.332a4.064 4.064 0 00.336-1.648h-2c0 .32-.06.597-.168.844l1.832.804zm.336-1.648c0-.576-.109-1.13-.336-1.648l-1.832.804c.109.247.168.524.168.844h2zm-.336-1.648a4.054 4.054 0 00-.945-1.335l-1.37 1.458c.211.198.37.423.483.681l1.832-.804zm-.934-1.324a4.161 4.161 0 00-1.378-.884l-.736 1.86c.284.112.522.266.722.46l1.392-1.436zm-1.378-.884a4.508 4.508 0 00-1.67-.308v2c.351 0 .66.06.934.168l.736-1.86zm3.496 11.564h1v-1h-1v1zm0 2.03v1h1v-1h-1zm-8.344 0v-1h-1v1h1zm0 4.844v1h1v-1h-1zm-1.96 0H0v1h1v-1zm0-6.874v-1H0v1h1zm9.304 0v2.03h2v-2.03h-2zm1 1.03H2.96v2h8.344v-2zm-9.344 1v4.844h2v-4.844h-2zm1 3.844H1v2h1.96v-2zm-.96 1v-6.874H0v6.874h2zm-1-5.874h10.304v-2H1v2zm10.304 8.389h1v-1h-1v1zm0 2.03v1h1v-1h-1zm-8.344 0v-1h-1v1h1zm0 4.844v1h1v-1h-1zm-1.96 0H0v1h1v-1zm0-6.874v-1H0v1h1zm9.304 0v2.03h2v-2.03h-2zm1 1.03H2.96v2h8.344v-2zm-9.344 1v4.844h2v-4.844h-2zm1 3.844H1v2h1.96v-2zm-.96 1v-6.874H0v6.874h2zm-1-5.874h10.304v-2H1v2zm0 13.361v-1H0v1h1zm10.304 0h1v-1h-1v1zm-.462 5.726l-.921-.39.921.39zm-1.232 1.75l-.65-.76-.008.007.658.753zm-1.722.98l.308.952-.308-.952zm-3.99-.112l.414-.91-.007-.003-.407.913zm-1.568-1.12l-.743.67.008.008.735-.678zm-.994-1.652l-.942.337.005.013.937-.35zm1.624-3.542v-1h-1v1h1zm.196 2.604l-.955.297.003.01.003.01.949-.317zm.602 1.078l.763-.647-.005-.006-.005-.005-.753.658zm.98.7l.386-.922-.01-.005-.376.927zm3.01-.084l-.447-.894-.012.006-.012.006.471.882zm.994-.812l-.806-.592-.008.01.814.582zm.476-.98l-.964-.267-.003.012-.003.013.97.242zm.14-2.506h1v-1h-1v1zM1 66.848h10.304v-2H1v2zm9.304-1v3.08h2v-3.08h-2zm0 3.08c0 .942-.14 1.684-.383 2.257l1.842.779c.374-.883.541-1.906.541-3.036h-2zm-.383 2.257c-.258.609-.584 1.057-.96 1.379l1.299 1.52c.65-.555 1.145-1.274 1.503-2.12l-1.842-.78zm-.969 1.386c-.413.36-.869.619-1.372.782l.616 1.903a5.88 5.88 0 002.072-1.178L8.951 72.57zm-1.372.782a5.198 5.198 0 01-1.61.26v2c.752 0 1.495-.121 2.226-.357l-.616-1.903zm-1.61.26c-.641 0-1.188-.118-1.658-.331l-.828 1.82c.762.347 1.597.51 2.486.51v-2zm-1.665-.334a3.725 3.725 0 01-1.24-.885l-1.47 1.356a5.724 5.724 0 001.896 1.355l.814-1.826zm-1.232-.877a4.106 4.106 0 01-.8-1.332l-1.874.7a6.104 6.104 0 001.188 1.972l1.486-1.34zm-.796-1.32A4.851 4.851 0 012 69.433H0c0 .809.13 1.586.395 2.325l1.882-.674zM2 69.433v-3.584H0v3.584h2zm-.04-1.554v1.204h2v-1.204h-2zm0 1.204c0 .598.076 1.167.241 1.697l1.91-.594a3.706 3.706 0 01-.151-1.103h-2zm.247 1.716c.177.532.44 1.011.798 1.42l1.506-1.316a2.11 2.11 0 01-.406-.736l-1.898.632zm.788 1.41c.371.436.833.763 1.368.98l.75-1.855a1.486 1.486 0 01-.592-.42l-1.526 1.294zm1.357.975a4.53 4.53 0 001.758.33v-2c-.404 0-.727-.067-.986-.175l-.772 1.845zm1.758.33c.773 0 1.496-.128 2.109-.455l-.942-1.764c-.227.121-.596.218-1.167.218v2zm2.085-.442c.547-.274 1.016-.643 1.36-1.126l-1.627-1.162c-.121.17-.315.343-.627.499l.894 1.789zm1.353-1.114c.3-.408.52-.852.64-1.33l-1.94-.485a1.805 1.805 0 01-.312.63l1.612 1.184zm.633-1.305a4.26 4.26 0 00.177-1.122h-2c0 .11-.024.3-.104.587l1.928.535zm.177-1.122v-1.652h-2v1.652h2zm-1-2.652H2.96v2h6.398v-2zm-1.204 9.967l-.392.92.392-.92zm1.68 1.12l.7-.714-.7.714zm1.162 1.68l.915-.404-.915.404zm0 4.074l.915.404-.915-.404zM9.834 85.4l-.7-.714-.007.007-.007.007.714.7zm-1.68 1.148l-.392-.92-.012.005.404.915zm-4.06 0l.404-.915-.012-.005-.392.92zM2.414 85.4l-.714.7.714-.7zm-1.12-1.68l-.92.392.92-.392zm0-4.074l.92.392-.92-.392zm1.12-1.68l-.7-.714-.007.007-.007.007.714.7zm1.68-1.12l.392.92-.392-.92zm.756 1.932l-.368-.93-.013.005-.013.006.394.919zm-1.05.686l-.685-.729-.011.01-.011.012.707.707zm-.7 1.022l-.916-.402-.003.008.919.394zm0 2.492l.916-.402-.004-.008-.912.41zm.7.994l-.684.73.006.005.005.005.673-.74zm1.05.658l-.375.927.007.003.368-.93zm2.59-.014l-.368-.93-.009.004-.01.004.387.922zm1.05-.672l-.673-.74-.011.01-.012.012.696.718zm.714-.994l-.916-.402.916.402zm-.714-3.5l-.696.718.006.005.005.006.685-.73zm-1.05-.672l-.368.93.368-.93zM6.138 77.44c.578 0 1.117.11 1.624.326l.784-1.84a6.085 6.085 0 00-2.408-.486v2zm1.624.326c.522.222.977.526 1.372.914l1.4-1.428a6.402 6.402 0 00-1.988-1.326l-.784 1.84zm1.372.914c.404.396.718.85.947 1.37l1.83-.808a6.366 6.366 0 00-1.377-1.99l-1.4 1.428zm.947 1.37c.221.5.335 1.044.335 1.64h2c0-.86-.166-1.68-.505-2.448l-1.83.808zm.335 1.64a3.97 3.97 0 01-.335 1.626l1.83.808a5.972 5.972 0 00.505-2.434h-2zm-.335 1.626a4.369 4.369 0 01-.947 1.37l1.4 1.428a6.366 6.366 0 001.377-1.99l-1.83-.808zm-.96 1.384a4.18 4.18 0 01-1.36.928l.785 1.84a6.178 6.178 0 002.002-1.368L9.12 84.7zm-1.37.933a3.94 3.94 0 01-1.613.335v2a5.94 5.94 0 002.42-.505l-.808-1.83zm-1.613.335c-.596 0-1.14-.114-1.64-.335l-.808 1.83a6.006 6.006 0 002.448.505v-2zm-1.652-.34a4.18 4.18 0 01-1.358-.928L1.7 86.1a6.178 6.178 0 002.002 1.368l.784-1.84zM3.128 84.7a4.405 4.405 0 01-.914-1.372l-1.84.784A6.404 6.404 0 001.7 86.1l1.428-1.4zm-.914-1.372a4.12 4.12 0 01-.326-1.638h-2c0 .848.16 1.658.486 2.422l1.84-.784zm-.326-1.638c0-.6.111-1.148.326-1.652l-1.84-.784a6.155 6.155 0 00-.486 2.436h2zm.326-1.652c.222-.522.526-.977.914-1.372l-1.428-1.4a6.404 6.404 0 00-1.326 1.988l1.84.784zm.9-1.358c.395-.388.85-.692 1.372-.914l-.784-1.84a6.402 6.402 0 00-1.988 1.326l1.4 1.428zm1.372-.914a4.158 4.158 0 011.652-.326v-2c-.855 0-1.67.16-2.436.486l.784 1.84zm1.652-.226c-.576 0-1.13.1-1.656.308l.736 1.86c.277-.11.58-.168.92-.168v-2zm-1.682.319a4.581 4.581 0 00-1.34.876l1.369 1.458a2.58 2.58 0 01.759-.496l-.788-1.838zm-1.363.898c-.386.385-.69.83-.909 1.327l1.832.804c.117-.268.28-.505.491-.717l-1.414-1.414zM2.18 80.09a4.2 4.2 0 00-.333 1.668h2c0-.332.06-.621.171-.88L2.18 80.09zm-.333 1.668c0 .57.11 1.117.34 1.628l1.824-.82a1.934 1.934 0 01-.164-.808h-2zm.336 1.62a4 4 0 00.932 1.321l1.368-1.459a2.001 2.001 0 01-.468-.666l-1.832.804zm.943 1.332a4.5 4.5 0 001.348.845l.75-1.854a2.5 2.5 0 01-.752-.471l-1.346 1.48zm1.355.848c.526.207 1.08.308 1.656.308v-2c-.34 0-.643-.058-.92-.168l-.736 1.86zm1.656.308a4.33 4.33 0 001.688-.33l-.772-1.845a2.34 2.34 0 01-.916.175v2zm1.67-.322c.519-.205.981-.5 1.378-.884l-1.392-1.436c-.2.194-.438.348-.722.46l.736 1.86zm1.355-.862c.412-.375.732-.822.957-1.332l-1.832-.804a1.91 1.91 0 01-.47.656l1.345 1.48zm.957-1.332a4.064 4.064 0 00.336-1.648h-2c0 .32-.06.597-.168.844l1.832.804zm.336-1.648c0-.576-.109-1.13-.336-1.648l-1.832.804c.109.247.168.524.168.844h2zm-.336-1.648a4.054 4.054 0 00-.945-1.335l-1.37 1.458c.211.198.37.423.483.68l1.832-.803zm-.934-1.324a4.163 4.163 0 00-1.378-.884l-.736 1.86c.284.112.522.266.722.46l1.392-1.436zm-1.378-.884a4.51 4.51 0 00-1.67-.308v2c.351 0 .66.06.934.168l.736-1.86zm3.426 9.848h1v-1.46l-1.36.527.36.933zm0 2.38l.322.947.678-.23v-.717h-1zm-6.468 2.198l-.917-.399-.901 2.073 2.14-.727-.322-.947zm.14-.322l.373-.928-.902-.363-.388.892.917.399zm4.774 1.918l.32.948 2.568-.865-2.515-1.011-.373.928zm-2.786.938l-.422.906.362.17.38-.129-.32-.947zm-6.37-2.968l-.36-.933-2.19.847 2.128.992.422-.906zm10.71 1.022h1v-1.479l-1.372.55.372.929zm0 2.016l.375.927.625-.253v-.674h-1zM4.976 97.41l-.988-.152-.268 1.74 1.631-.661-.375-.927zm.056-.364l.292-.957-1.105-.336-.175 1.14.988.153zm6.202 1.89h1v-.74l-.709-.217-.291.957zm0 2.184l-.349.937 1.349.502v-1.439h-1zM.552 97.145l-.372-.928-2.401.963 2.424.902.349-.937zm9.682-9.45v2.38h2v-2.38h-2zm.678 1.433l-6.468 2.198.644 1.894 6.468-2.198-.644-1.894zm-5.229 3.543l.14-.322-1.834-.797-.14.322 1.834.797zm-1.15.208l4.774 1.918.746-1.856-4.774-1.918-.746 1.856zm4.828.042l-2.786.938.638 1.895L10 94.816l-.638-1.895zm-2.045.98l-6.37-2.969-.844 1.813 6.37 2.968.844-1.813zM.885 92.77l10.71-4.144-.722-1.865-10.71 4.144.722 1.865zm9.349.09v2.016h2V92.86h-2zm.625 1.089L4.6 96.484l.75 1.854 6.258-2.534-.75-1.854zm-4.895 3.613l.056-.364-1.976-.304-.056.364 1.976.304zm-1.224.44l6.203 1.89.582-1.913-6.201-1.89-.584 1.913zm5.494.934v2.184h2v-2.184h-2zm1.349 1.247L.9 96.208l-.698 1.874 10.682 3.976.698-1.874zM.924 98.073l10.682-4.284-.744-1.856L.18 96.217l.744 1.856zM.58 112.55l-.742-.67-.258.285v.385h1zm7.056-7.812l.873.487-1.615-1.157.742.67zm-.336.602l.007 1 .582-.004.284-.509-.873-.487zm-6.3.042H0v1.007l1.007-.007-.007-1zm0-2.058v-1H0v1h1zm10.71 0h1v-1h-1v1zm0 .084l.736.677.264-.287v-.39h-1zm-7.028 7.644l-.916-.401 1.652 1.078-.736-.677zm.196-.448l-.007-1-.649.004-.26.595.916.401zm6.426-.042h1v-1.007l-1.007.007.007 1zm0 2.044v1h1v-1h-1zm-10.724 0h-1v1h1v-1zm.742.614l7.056-7.812-1.484-1.34-7.056 7.812 1.484 1.34zm5.44-8.969l-.335.602 1.746.974.336-.602-1.746-.974zm.531.089l-6.3.042.014 2 6.3-.042-.014-2zM2 105.383v-2.058H0v2.058h2zm-1-1.058h10.71v-2H1v2zm9.71-1v.084h2v-.084h-2zm.264-.593l-7.028 7.644 1.472 1.354 7.028-7.644-1.472-1.354zm-5.376 8.722l.196-.448-1.832-.802-.196.448 1.832.802zm-.713.151l6.425-.042-.013-2-6.426.042.014 2zm5.419-1.042v2.044h2v-2.044h-2zm1 1.044H.58v2h10.724v-2zm-9.724 1v-.056h-2v.056h2z" fill="#fff"/><path stroke="#fff" d="M5.5 131v58"/><path transform="matrix(.5806 -.81419 .93448 .35602 6.383 188.284)" stroke="#fff" d="M0-.5h9.197"/></svg>