<svg width="12" height="189" fill="none" xmlns="http://www.w3.org/2000/svg"><path d="M8.812 6.832c.215-.392.392-.793.532-1.204.14-.401.21-.78.21-1.134 0-.439-.089-.784-.266-1.036-.177-.252-.443-.378-.798-.378a.932.932 0 00-.658.28 3.036 3.036 0 00-.504.742 10.8 10.8 0 00-.406.952 6.796 6.796 0 01-.406.882c-.15.299-.34.565-.574.798-.224.233-.509.42-.854.56-.336.14-.751.21-1.246.21a2.765 2.765 0 01-1.456-.406c-.448-.27-.812-.667-1.092-1.19-.27-.523-.406-1.167-.406-1.932 0-.392.037-.793.112-1.204.084-.401.205-.798.364-1.19.168-.392.378-.77.63-1.134l1.582.896a5.477 5.477 0 00-.476.784c-.13.29-.233.579-.308.868-.075.29-.112.555-.112.798s.033.485.098.728c.075.252.196.457.364.616.168.168.401.252.7.252.205 0 .392-.07.56-.21.168-.13.322-.313.462-.546a4.23 4.23 0 00.364-.742c.121-.317.261-.644.42-.98a5.49 5.49 0 01.574-.952c.233-.29.518-.527.854-.714.345-.177.765-.266 1.26-.266.597 0 1.115.13 1.554.392.439.27.784.649 1.036 1.134.261.485.406 1.045.434 1.68 0 .83-.098 1.503-.294 2.016a7 7 0 01-.7 1.4l-1.554-.77zM1.854 17.64c-.093-.112-.22-.322-.378-.63a5.5 5.5 0 01-.42-1.106 5.115 5.115 0 01-.168-1.456c.019-.812.163-1.54.434-2.184a4.936 4.936 0 011.134-1.624 5.013 5.013 0 011.638-1.008 5.526 5.526 0 011.974-.35 6.37 6.37 0 012.156.35 5.075 5.075 0 011.694 1.022c.476.448.845.98 1.106 1.596.261.616.392 1.297.392 2.044 0 .69-.093 1.302-.28 1.834-.187.532-.387.966-.602 1.302l-1.918-.798a5.4 5.4 0 00.546-.938c.196-.383.294-.826.294-1.33 0-.392-.084-.77-.252-1.134a2.948 2.948 0 00-.686-.952 3.418 3.418 0 00-1.05-.644 3.401 3.401 0 00-1.288-.238c-.495 0-.947.07-1.358.21-.41.15-.765.36-1.064.63-.29.27-.513.593-.672.966a3.334 3.334 0 00-.238 1.288c0 .55.089 1.022.266 1.414.177.392.364.69.56.896l-1.82.84zm9.45 5.576c0 .644-.084 1.218-.252 1.722a3.3 3.3 0 01-.7 1.26 2.871 2.871 0 01-1.092.784 3.64 3.64 0 01-1.428.266c-.42 0-.84-.066-1.26-.196a3.119 3.119 0 01-1.148-.616c-.345-.28-.625-.654-.84-1.12-.205-.467-.308-1.046-.308-1.736v-1.456H1v-2.03h10.304v3.122zm-5.068.35c0 .308.051.565.154.77.103.205.233.364.392.476.159.121.322.205.49.252.177.056.34.084.49.084a2 2 0 00.42-.056 1.54 1.54 0 00.532-.196 1.23 1.23 0 00.448-.476c.121-.206.182-.486.182-.84v-1.456H6.236v1.442zm-1.26 1.904L1 28.018v-2.366l3.92-2.604.056 2.422zm1.162 3.656c.71 0 1.381.135 2.016.406a5.405 5.405 0 012.842 2.8c.28.635.42 1.316.42 2.044 0 .719-.14 1.395-.42 2.03a5.367 5.367 0 01-1.162 1.68 5.177 5.177 0 01-1.68 1.148 4.94 4.94 0 01-2.016.42c-.728 0-1.41-.14-2.044-.42a5.177 5.177 0 01-1.68-1.148 5.404 5.404 0 01-1.12-1.68 5.12 5.12 0 01-.406-2.03c0-.728.135-1.41.406-2.044a5.404 5.404 0 011.12-1.68 5.405 5.405 0 011.68-1.12 5.155 5.155 0 012.044-.406zm0 2.1c-.457 0-.887.08-1.288.238a3.583 3.583 0 00-1.05.686 3.33 3.33 0 00-.7 1.022 3.2 3.2 0 00-.252 1.274c0 .439.084.845.252 1.218a3 3 0 00.7.994c.308.28.658.5 1.05.658.401.159.83.238 1.288.238.467 0 .9-.084 1.302-.252a3.164 3.164 0 001.05-.672c.308-.28.546-.611.714-.994.168-.383.252-.798.252-1.246 0-.448-.084-.863-.252-1.246a3.055 3.055 0 00-.714-1.008 3.164 3.164 0 00-1.05-.672 3.509 3.509 0 00-1.302-.238zm5.166 10.872v2.03H2.96v4.844H1v-6.874h10.304zm0 9.389v2.03H2.96v4.844H1v-6.874h10.304zM1 65.848h10.304v3.08c0 1.036-.154 1.918-.462 2.646-.308.728-.719 1.311-1.232 1.75a4.88 4.88 0 01-1.722.98 6.195 6.195 0 01-1.918.308c-.765 0-1.456-.14-2.072-.42a4.724 4.724 0 01-1.568-1.12 5.103 5.103 0 01-.994-1.652A5.85 5.85 0 011 69.432v-3.584zm1.96 2.03v1.204c0 .514.065.98.196 1.4.14.42.34.78.602 1.078.261.308.588.541.98.7.401.168.859.252 1.372.252.672 0 1.218-.112 1.638-.336.43-.215.76-.485.994-.812a2.8 2.8 0 00.476-.98c.093-.336.14-.62.14-.854v-1.652H2.96zm3.178 8.56c.71 0 1.381.136 2.016.407a5.405 5.405 0 012.842 2.8c.28.635.42 1.316.42 2.044 0 .719-.14 1.395-.42 2.03a5.367 5.367 0 01-1.162 1.68 5.177 5.177 0 01-1.68 1.148 4.94 4.94 0 01-2.016.42c-.728 0-1.41-.14-2.044-.42a5.177 5.177 0 01-1.68-1.148 5.404 5.404 0 01-1.12-1.68 5.12 5.12 0 01-.406-2.03c0-.728.135-1.41.406-2.044a5.404 5.404 0 011.12-1.68 5.405 5.405 0 011.68-1.12 5.155 5.155 0 012.044-.406zm0 2.1c-.457 0-.887.08-1.288.239a3.583 3.583 0 00-1.05.686 3.33 3.33 0 00-.7 1.022 3.2 3.2 0 00-.252 1.274c0 .439.084.845.252 1.218a3 3 0 00.7.994c.308.28.658.5 1.05.658.401.159.83.238 1.288.238.467 0 .9-.084 1.302-.252a3.164 3.164 0 001.05-.672c.308-.28.546-.611.714-.994.168-.383.252-.798.252-1.246 0-.448-.084-.863-.252-1.246a3.055 3.055 0 00-.714-1.008 3.164 3.164 0 00-1.05-.672 3.509 3.509 0 00-1.302-.238zm5.096 9.157v2.38l-6.468 2.198.14-.322 4.774 1.918-2.786.938-6.37-2.968 10.71-4.144zm0 5.166v2.016L4.976 97.41l.056-.364 6.202 1.89v2.184L.552 97.145l10.682-4.284zM.58 112.55l7.056-7.812-.336.602-6.3.042v-2.058h10.71v.084l-7.028 7.644.196-.448 6.426-.042v2.044H.58v-.056z" fill="#fff"/><path stroke="#fff" d="M5.5 131v58"/><path transform="matrix(.5806 -.81419 .93448 .35602 6.383 188.284)" stroke="#fff" d="M0-.5h9.197"/></svg>