<svg width="16" height="13" viewBox="0 0 16 13" fill="none" xmlns="http://www.w3.org/2000/svg">
<path d="M15.4286 0H0.571429C0.255357 0 0 0.264062 0 0.590909V12.4091C0 12.7359 0.255357 13 0.571429 13H15.4286C15.7446 13 16 12.7359 16 12.4091V0.590909C16 0.264062 15.7446 0 15.4286 0ZM14.7143 2.04602V11.6705H1.28571V2.04602L0.792857 1.64901L1.49464 0.716477L2.25893 1.33139H13.7429L14.5071 0.716477L15.2089 1.64901L14.7143 2.04602ZM13.7429 1.32955L8 5.94602L2.25714 1.32955L1.49286 0.714631L0.791072 1.64716L1.28393 2.04418L7.38393 6.94872C7.55936 7.08965 7.77518 7.16616 7.99732 7.16616C8.21947 7.16616 8.43529 7.08965 8.61071 6.94872L14.7143 2.04602L15.2071 1.64901L14.5054 0.716477L13.7429 1.32955Z" fill="white"/>
</svg>
