<svg width="264" height="48" viewBox="0 0 264 48" fill="none" xmlns="http://www.w3.org/2000/svg">
<path d="M26.16 12.288C26.544 13.6 26.96 15.088 27.408 16.752C27.888 18.384 28.384 20.08 28.896 21.84C29.44 23.6 29.984 25.36 30.528 27.12C31.072 28.88 31.6 30.512 32.112 32.016C32.528 30.384 32.944 28.608 33.36 26.688C33.808 24.768 34.224 22.784 34.608 20.736C34.992 18.688 35.36 16.656 35.712 14.64C36.096 12.592 36.448 10.624 36.768 8.736H44.544C43.424 14.304 42.128 19.952 40.656 25.68C39.216 31.408 37.648 36.848 35.952 42H29.088C27.968 38.928 26.88 35.712 25.824 32.352C24.768 28.96 23.728 25.568 22.704 22.176C21.68 25.568 20.656 28.96 19.632 32.352C18.608 35.712 17.536 38.928 16.416 42H9.552C7.856 36.848 6.272 31.408 4.8 25.68C3.36 19.952 2.08 14.304 0.96 8.736H9.072C9.392 10.624 9.744 12.592 10.128 14.64C10.512 16.656 10.912 18.688 11.328 20.736C11.744 22.784 12.16 24.768 12.576 26.688C13.024 28.608 13.472 30.384 13.92 32.016C14.496 30.448 15.056 28.784 15.6 27.024C16.144 25.264 16.672 23.504 17.184 21.744C17.696 19.984 18.16 18.288 18.576 16.656C19.024 15.024 19.424 13.568 19.776 12.288H26.16ZM47.6756 29.568C47.6756 27.328 48.0116 25.376 48.6836 23.712C49.3876 22.016 50.2996 20.608 51.4196 19.488C52.5396 18.368 53.8196 17.52 55.2596 16.944C56.7316 16.368 58.2356 16.08 59.7716 16.08C63.3556 16.08 66.1876 17.184 68.2676 19.392C70.3476 21.568 71.3876 24.784 71.3876 29.04C71.3876 29.456 71.3716 29.92 71.3396 30.432C71.3076 30.912 71.2756 31.344 71.2436 31.728H55.0196C55.1796 33.2 55.8676 34.368 57.0836 35.232C58.2996 36.096 59.9316 36.528 61.9796 36.528C63.2916 36.528 64.5716 36.416 65.8196 36.192C67.0996 35.936 68.1396 35.632 68.9396 35.28L69.8996 41.088C69.5156 41.28 69.0036 41.472 68.3636 41.664C67.7236 41.856 67.0036 42.016 66.2036 42.144C65.4356 42.304 64.6036 42.432 63.7076 42.528C62.8116 42.624 61.9156 42.672 61.0196 42.672C58.7476 42.672 56.7636 42.336 55.0676 41.664C53.4036 40.992 52.0116 40.08 50.8916 38.928C49.8036 37.744 48.9876 36.352 48.4436 34.752C47.9316 33.152 47.6756 31.424 47.6756 29.568ZM64.4756 26.832C64.4436 26.224 64.3316 25.632 64.1396 25.056C63.9796 24.48 63.7076 23.968 63.3236 23.52C62.9716 23.072 62.5076 22.704 61.9316 22.416C61.3876 22.128 60.6996 21.984 59.8676 21.984C59.0676 21.984 58.3796 22.128 57.8036 22.416C57.2276 22.672 56.7476 23.024 56.3636 23.472C55.9796 23.92 55.6756 24.448 55.4516 25.056C55.2596 25.632 55.1156 26.224 55.0196 26.832H64.4756ZM93.0829 29.184C93.0829 24.576 91.3869 22.272 87.9949 22.272C87.2589 22.272 86.5229 22.368 85.7869 22.56C85.0829 22.752 84.5069 22.992 84.0589 23.28V36.288C84.4109 36.352 84.8589 36.416 85.4029 36.48C85.9469 36.512 86.5389 36.528 87.1789 36.528C89.1309 36.528 90.6029 35.856 91.5949 34.512C92.5869 33.168 93.0829 31.392 93.0829 29.184ZM100.379 29.376C100.379 31.392 100.075 33.216 99.4669 34.848C98.8909 36.48 98.0429 37.872 96.9229 39.024C95.8029 40.176 94.4269 41.072 92.7949 41.712C91.1629 42.32 89.3069 42.624 87.2269 42.624C86.3629 42.624 85.4509 42.576 84.4909 42.48C83.5629 42.416 82.6349 42.32 81.7069 42.192C80.8109 42.064 79.9469 41.92 79.1149 41.76C78.2829 41.568 77.5469 41.376 76.9069 41.184V5.904L84.0589 4.752V17.328C84.8589 16.976 85.6909 16.704 86.5549 16.512C87.4189 16.32 88.3469 16.224 89.3389 16.224C91.1309 16.224 92.7149 16.544 94.0909 17.184C95.4669 17.792 96.6189 18.672 97.5469 19.824C98.4749 20.976 99.1789 22.368 99.6589 24C100.139 25.6 100.379 27.392 100.379 29.376ZM139.162 8.352C144.154 8.352 147.978 9.248 150.634 11.04C153.29 12.8 154.618 15.552 154.618 19.296C154.618 21.632 154.074 23.536 152.986 25.008C151.93 26.448 150.394 27.584 148.378 28.416C149.05 29.248 149.754 30.208 150.49 31.296C151.226 32.352 151.946 33.472 152.65 34.656C153.386 35.808 154.09 37.024 154.762 38.304C155.434 39.552 156.058 40.784 156.634 42H148.234C147.626 40.912 147.002 39.808 146.362 38.688C145.754 37.568 145.114 36.48 144.442 35.424C143.802 34.368 143.162 33.376 142.522 32.448C141.882 31.488 141.242 30.624 140.602 29.856H136.906V42H129.418V9.216C131.05 8.896 132.73 8.672 134.458 8.544C136.218 8.416 137.786 8.352 139.162 8.352ZM139.594 14.736C139.05 14.736 138.554 14.752 138.106 14.784C137.69 14.816 137.29 14.848 136.906 14.88V23.904H139.018C141.834 23.904 143.85 23.552 145.066 22.848C146.282 22.144 146.89 20.944 146.89 19.248C146.89 17.616 146.266 16.464 145.018 15.792C143.802 15.088 141.994 14.736 139.594 14.736ZM184.57 29.328C184.57 31.312 184.282 33.136 183.706 34.8C183.13 36.432 182.298 37.84 181.21 39.024C180.122 40.176 178.81 41.072 177.274 41.712C175.77 42.352 174.074 42.672 172.186 42.672C170.33 42.672 168.634 42.352 167.098 41.712C165.594 41.072 164.298 40.176 163.21 39.024C162.122 37.84 161.274 36.432 160.666 34.8C160.058 33.136 159.754 31.312 159.754 29.328C159.754 27.344 160.058 25.536 160.666 23.904C161.306 22.272 162.17 20.88 163.258 19.728C164.378 18.576 165.69 17.68 167.194 17.04C168.73 16.4 170.394 16.08 172.186 16.08C174.01 16.08 175.674 16.4 177.178 17.04C178.714 17.68 180.026 18.576 181.114 19.728C182.202 20.88 183.05 22.272 183.658 23.904C184.266 25.536 184.57 27.344 184.57 29.328ZM177.274 29.328C177.274 27.12 176.826 25.392 175.93 24.144C175.066 22.864 173.818 22.224 172.186 22.224C170.554 22.224 169.29 22.864 168.394 24.144C167.498 25.392 167.05 27.12 167.05 29.328C167.05 31.536 167.498 33.296 168.394 34.608C169.29 35.888 170.554 36.528 172.186 36.528C173.818 36.528 175.066 35.888 175.93 34.608C176.826 33.296 177.274 31.536 177.274 29.328ZM213.726 29.328C213.726 31.312 213.438 33.136 212.862 34.8C212.286 36.432 211.454 37.84 210.366 39.024C209.278 40.176 207.966 41.072 206.43 41.712C204.926 42.352 203.23 42.672 201.342 42.672C199.486 42.672 197.79 42.352 196.254 41.712C194.75 41.072 193.454 40.176 192.366 39.024C191.278 37.84 190.43 36.432 189.822 34.8C189.214 33.136 188.91 31.312 188.91 29.328C188.91 27.344 189.214 25.536 189.822 23.904C190.462 22.272 191.326 20.88 192.414 19.728C193.534 18.576 194.846 17.68 196.35 17.04C197.886 16.4 199.55 16.08 201.342 16.08C203.166 16.08 204.83 16.4 206.334 17.04C207.87 17.68 209.182 18.576 210.27 19.728C211.358 20.88 212.206 22.272 212.814 23.904C213.422 25.536 213.726 27.344 213.726 29.328ZM206.43 29.328C206.43 27.12 205.982 25.392 205.086 24.144C204.222 22.864 202.974 22.224 201.342 22.224C199.71 22.224 198.446 22.864 197.55 24.144C196.654 25.392 196.206 27.12 196.206 29.328C196.206 31.536 196.654 33.296 197.55 34.608C198.446 35.888 199.71 36.528 201.342 36.528C202.974 36.528 204.222 35.888 205.086 34.608C205.982 33.296 206.43 31.536 206.43 29.328ZM219.026 10.464L226.178 9.312V16.752H234.77V22.704H226.178V31.584C226.178 33.088 226.434 34.288 226.946 35.184C227.49 36.08 228.562 36.528 230.162 36.528C230.93 36.528 231.714 36.464 232.514 36.336C233.346 36.176 234.098 35.968 234.77 35.712L235.778 41.28C234.914 41.632 233.954 41.936 232.898 42.192C231.842 42.448 230.546 42.576 229.01 42.576C227.058 42.576 225.442 42.32 224.162 41.808C222.882 41.264 221.858 40.528 221.09 39.6C220.322 38.64 219.778 37.488 219.458 36.144C219.17 34.8 219.026 33.312 219.026 31.68V10.464ZM247.842 36.864C249.154 36.864 250.082 36.736 250.626 36.48C251.17 36.224 251.442 35.728 251.442 34.992C251.442 34.416 251.09 33.92 250.386 33.504C249.682 33.056 248.61 32.56 247.17 32.016C246.05 31.6 245.026 31.168 244.098 30.72C243.202 30.272 242.434 29.744 241.794 29.136C241.154 28.496 240.658 27.744 240.306 26.88C239.954 26.016 239.778 24.976 239.778 23.76C239.778 21.392 240.658 19.52 242.418 18.144C244.178 16.768 246.594 16.08 249.666 16.08C251.202 16.08 252.674 16.224 254.082 16.512C255.49 16.768 256.61 17.056 257.442 17.376L256.194 22.944C255.362 22.656 254.45 22.4 253.458 22.176C252.498 21.952 251.41 21.84 250.194 21.84C247.954 21.84 246.834 22.464 246.834 23.712C246.834 24 246.882 24.256 246.978 24.48C247.074 24.704 247.266 24.928 247.554 25.152C247.842 25.344 248.226 25.568 248.706 25.824C249.218 26.048 249.858 26.304 250.626 26.592C252.194 27.168 253.49 27.744 254.514 28.32C255.538 28.864 256.338 29.472 256.914 30.144C257.522 30.784 257.938 31.504 258.162 32.304C258.418 33.104 258.546 34.032 258.546 35.088C258.546 37.584 257.602 39.472 255.714 40.752C253.858 42.032 251.218 42.672 247.794 42.672C245.554 42.672 243.682 42.48 242.178 42.096C240.706 41.712 239.682 41.392 239.106 41.136L240.306 35.328C241.522 35.808 242.77 36.192 244.05 36.48C245.33 36.736 246.594 36.864 247.842 36.864Z" fill="white"/>
<line x1="106" y1="27.5" x2="124" y2="27.5" stroke="white" stroke-width="5"/>
</svg>
