<svg width="222" height="34" viewBox="0 0 222 34" fill="none" xmlns="http://www.w3.org/2000/svg">
<path d="M87 20H101" stroke="black" stroke-width="5"/>
<path d="M21.8 7.24C22.12 8.33333 22.4667 9.57333 22.84 10.96C23.24 12.32 23.6533 13.7333 24.08 15.2C24.5333 16.6667 24.9867 18.1333 25.44 19.6C25.8933 21.0667 26.3333 22.4267 26.76 23.68C27.1067 22.32 27.4533 20.84 27.8 19.24C28.1733 17.64 28.52 15.9867 28.84 14.28C29.16 12.5733 29.4667 10.88 29.76 9.2C30.08 7.49333 30.3733 5.85333 30.64 4.28H37.12C36.1867 8.92 35.1067 13.6267 33.88 18.4C32.68 23.1733 31.3733 27.7067 29.96 32H24.24C23.3067 29.44 22.4 26.76 21.52 23.96C20.64 21.1333 19.7733 18.3067 18.92 15.48C18.0667 18.3067 17.2133 21.1333 16.36 23.96C15.5067 26.76 14.6133 29.44 13.68 32H7.96C6.54667 27.7067 5.22667 23.1733 4 18.4C2.8 13.6267 1.73333 8.92 0.8 4.28H7.56C7.82667 5.85333 8.12 7.49333 8.44 9.2C8.76 10.88 9.09333 12.5733 9.44 14.28C9.78667 15.9867 10.1333 17.64 10.48 19.24C10.8533 20.84 11.2267 22.32 11.6 23.68C12.08 22.3733 12.5467 20.9867 13 19.52C13.4533 18.0533 13.8933 16.5867 14.32 15.12C14.7467 13.6533 15.1333 12.24 15.48 10.88C15.8533 9.52 16.1867 8.30666 16.48 7.24H21.8ZM38.4016 21.64C38.4016 19.7733 38.6816 18.1467 39.2416 16.76C39.8282 15.3467 40.5882 14.1733 41.5216 13.24C42.4549 12.3067 43.5216 11.6 44.7216 11.12C45.9482 10.64 47.2016 10.4 48.4816 10.4C51.4682 10.4 53.8282 11.32 55.5616 13.16C57.2949 14.9733 58.1616 17.6533 58.1616 21.2C58.1616 21.5467 58.1482 21.9333 58.1216 22.36C58.0949 22.76 58.0682 23.12 58.0416 23.44H44.5216C44.6549 24.6667 45.2282 25.64 46.2416 26.36C47.2549 27.08 48.6149 27.44 50.3216 27.44C51.4149 27.44 52.4816 27.3467 53.5216 27.16C54.5882 26.9467 55.4549 26.6933 56.1216 26.4L56.9216 31.24C56.6016 31.4 56.1749 31.56 55.6416 31.72C55.1082 31.88 54.5082 32.0133 53.8416 32.12C53.2016 32.2533 52.5082 32.36 51.7616 32.44C51.0149 32.52 50.2682 32.56 49.5216 32.56C47.6282 32.56 45.9749 32.28 44.5616 31.72C43.1749 31.16 42.0149 30.4 41.0816 29.44C40.1749 28.4533 39.4949 27.2933 39.0416 25.96C38.6149 24.6267 38.4016 23.1867 38.4016 21.64ZM52.4016 19.36C52.3749 18.8533 52.2816 18.36 52.1216 17.88C51.9882 17.4 51.7616 16.9733 51.4416 16.6C51.1482 16.2267 50.7616 15.92 50.2816 15.68C49.8282 15.44 49.2549 15.32 48.5616 15.32C47.8949 15.32 47.3216 15.44 46.8416 15.68C46.3616 15.8933 45.9616 16.1867 45.6416 16.56C45.3216 16.9333 45.0682 17.3733 44.8816 17.88C44.7216 18.36 44.6016 18.8533 44.5216 19.36H52.4016ZM76.2409 21.32C76.2409 17.48 74.8276 15.56 72.0009 15.56C71.3876 15.56 70.7743 15.64 70.1609 15.8C69.5743 15.96 69.0943 16.16 68.7209 16.4V27.24C69.0143 27.2933 69.3876 27.3467 69.8409 27.4C70.2943 27.4267 70.7876 27.44 71.3209 27.44C72.9476 27.44 74.1743 26.88 75.0009 25.76C75.8276 24.64 76.2409 23.16 76.2409 21.32ZM82.3209 21.48C82.3209 23.16 82.0676 24.68 81.5609 26.04C81.0809 27.4 80.3743 28.56 79.4409 29.52C78.5076 30.48 77.3609 31.2267 76.0009 31.76C74.6409 32.2667 73.0943 32.52 71.3609 32.52C70.6409 32.52 69.8809 32.48 69.0809 32.4C68.3076 32.3467 67.5343 32.2667 66.7609 32.16C66.0143 32.0533 65.2943 31.9333 64.6009 31.8C63.9076 31.64 63.2943 31.48 62.7609 31.32V1.92L68.7209 0.959999V11.44C69.3876 11.1467 70.0809 10.92 70.8009 10.76C71.5209 10.6 72.2943 10.52 73.1209 10.52C74.6143 10.52 75.9343 10.7867 77.0809 11.32C78.2276 11.8267 79.1876 12.56 79.9609 13.52C80.7343 14.48 81.3209 15.64 81.7209 17C82.1209 18.3333 82.3209 19.8267 82.3209 21.48ZM114.64 3.96C118.8 3.96 121.987 4.70667 124.2 6.2C126.414 7.66667 127.52 9.96 127.52 13.08C127.52 15.0267 127.067 16.6133 126.16 17.84C125.28 19.04 124 19.9867 122.32 20.68C122.88 21.3733 123.467 22.1733 124.08 23.08C124.694 23.96 125.294 24.8933 125.88 25.88C126.494 26.84 127.08 27.8533 127.64 28.92C128.2 29.96 128.72 30.9867 129.2 32H122.2C121.694 31.0933 121.174 30.1733 120.64 29.24C120.134 28.3067 119.6 27.4 119.04 26.52C118.507 25.64 117.974 24.8133 117.44 24.04C116.907 23.24 116.374 22.52 115.84 21.88H112.76V32H106.52V4.68C107.88 4.41333 109.28 4.22667 110.72 4.12C112.187 4.01333 113.494 3.96 114.64 3.96ZM115 9.28C114.547 9.28 114.134 9.29333 113.76 9.32C113.414 9.34667 113.08 9.37333 112.76 9.4V16.92H114.52C116.867 16.92 118.547 16.6267 119.56 16.04C120.574 15.4533 121.08 14.4533 121.08 13.04C121.08 11.68 120.56 10.72 119.52 10.16C118.507 9.57333 117 9.28 115 9.28ZM151.464 21.44C151.464 23.0933 151.224 24.6133 150.744 26C150.264 27.36 149.571 28.5333 148.664 29.52C147.758 30.48 146.664 31.2267 145.384 31.76C144.131 32.2933 142.718 32.56 141.144 32.56C139.598 32.56 138.184 32.2933 136.904 31.76C135.651 31.2267 134.571 30.48 133.664 29.52C132.758 28.5333 132.051 27.36 131.544 26C131.038 24.6133 130.784 23.0933 130.784 21.44C130.784 19.7867 131.038 18.28 131.544 16.92C132.078 15.56 132.798 14.4 133.704 13.44C134.638 12.48 135.731 11.7333 136.984 11.2C138.264 10.6667 139.651 10.4 141.144 10.4C142.664 10.4 144.051 10.6667 145.304 11.2C146.584 11.7333 147.678 12.48 148.584 13.44C149.491 14.4 150.198 15.56 150.704 16.92C151.211 18.28 151.464 19.7867 151.464 21.44ZM145.384 21.44C145.384 19.6 145.011 18.16 144.264 17.12C143.544 16.0533 142.504 15.52 141.144 15.52C139.784 15.52 138.731 16.0533 137.984 17.12C137.238 18.16 136.864 19.6 136.864 21.44C136.864 23.28 137.238 24.7467 137.984 25.84C138.731 26.9067 139.784 27.44 141.144 27.44C142.504 27.44 143.544 26.9067 144.264 25.84C145.011 24.7467 145.384 23.28 145.384 21.44ZM175.761 21.44C175.761 23.0933 175.521 24.6133 175.041 26C174.561 27.36 173.868 28.5333 172.961 29.52C172.055 30.48 170.961 31.2267 169.681 31.76C168.428 32.2933 167.015 32.56 165.441 32.56C163.895 32.56 162.481 32.2933 161.201 31.76C159.948 31.2267 158.868 30.48 157.961 29.52C157.055 28.5333 156.348 27.36 155.841 26C155.335 24.6133 155.081 23.0933 155.081 21.44C155.081 19.7867 155.335 18.28 155.841 16.92C156.375 15.56 157.095 14.4 158.001 13.44C158.935 12.48 160.028 11.7333 161.281 11.2C162.561 10.6667 163.948 10.4 165.441 10.4C166.961 10.4 168.348 10.6667 169.601 11.2C170.881 11.7333 171.975 12.48 172.881 13.44C173.788 14.4 174.495 15.56 175.001 16.92C175.508 18.28 175.761 19.7867 175.761 21.44ZM169.681 21.44C169.681 19.6 169.308 18.16 168.561 17.12C167.841 16.0533 166.801 15.52 165.441 15.52C164.081 15.52 163.028 16.0533 162.281 17.12C161.535 18.16 161.161 19.6 161.161 21.44C161.161 23.28 161.535 24.7467 162.281 25.84C163.028 26.9067 164.081 27.44 165.441 27.44C166.801 27.44 167.841 26.9067 168.561 25.84C169.308 24.7467 169.681 23.28 169.681 21.44ZM180.178 5.72L186.138 4.76V10.96H193.298V15.92H186.138V23.32C186.138 24.5733 186.351 25.5733 186.778 26.32C187.231 27.0667 188.125 27.44 189.458 27.44C190.098 27.44 190.751 27.3867 191.418 27.28C192.111 27.1467 192.738 26.9733 193.298 26.76L194.138 31.4C193.418 31.6933 192.618 31.9467 191.738 32.16C190.858 32.3733 189.778 32.48 188.498 32.48C186.871 32.48 185.525 32.2667 184.458 31.84C183.391 31.3867 182.538 30.7733 181.898 30C181.258 29.2 180.805 28.24 180.538 27.12C180.298 26 180.178 24.76 180.178 23.4V5.72ZM204.192 27.72C205.285 27.72 206.058 27.6133 206.512 27.4C206.965 27.1867 207.192 26.7733 207.192 26.16C207.192 25.68 206.898 25.2667 206.312 24.92C205.725 24.5467 204.832 24.1333 203.632 23.68C202.698 23.3333 201.845 22.9733 201.072 22.6C200.325 22.2267 199.685 21.7867 199.152 21.28C198.618 20.7467 198.205 20.12 197.912 19.4C197.618 18.68 197.472 17.8133 197.472 16.8C197.472 14.8267 198.205 13.2667 199.672 12.12C201.138 10.9733 203.152 10.4 205.712 10.4C206.992 10.4 208.218 10.52 209.392 10.76C210.565 10.9733 211.498 11.2133 212.192 11.48L211.152 16.12C210.458 15.88 209.698 15.6667 208.872 15.48C208.072 15.2933 207.165 15.2 206.152 15.2C204.285 15.2 203.352 15.72 203.352 16.76C203.352 17 203.392 17.2133 203.472 17.4C203.552 17.5867 203.712 17.7733 203.952 17.96C204.192 18.12 204.512 18.3067 204.912 18.52C205.338 18.7067 205.872 18.92 206.512 19.16C207.818 19.64 208.898 20.12 209.752 20.6C210.605 21.0533 211.272 21.56 211.752 22.12C212.258 22.6533 212.605 23.2533 212.792 23.92C213.005 24.5867 213.112 25.36 213.112 26.24C213.112 28.32 212.325 29.8933 210.752 30.96C209.205 32.0267 207.005 32.56 204.152 32.56C202.285 32.56 200.725 32.4 199.472 32.08C198.245 31.76 197.392 31.4933 196.912 31.28L197.912 26.44C198.925 26.84 199.965 27.16 201.032 27.4C202.098 27.6133 203.152 27.72 204.192 27.72Z" fill="black"/>
</svg>
