<svg width="12" height="189" viewBox="0 0 12 189" fill="none" xmlns="http://www.w3.org/2000/svg">
<path d="M8.812 6.832C9.02667 6.44 9.204 6.03867 9.344 5.628C9.484 5.22667 9.554 4.84867 9.554 4.494C9.554 4.05533 9.46533 3.71 9.288 3.458C9.11067 3.206 8.84467 3.08 8.49 3.08C8.24733 3.08 8.028 3.17333 7.832 3.36C7.64533 3.556 7.47733 3.80333 7.328 4.102C7.17867 4.41 7.04333 4.72733 6.922 5.054C6.81 5.35267 6.67467 5.64667 6.516 5.936C6.36667 6.23467 6.17533 6.50067 5.942 6.734C5.718 6.96733 5.43333 7.154 5.088 7.294C4.752 7.434 4.33667 7.504 3.842 7.504C3.31933 7.504 2.834 7.36867 2.386 7.098C1.938 6.82733 1.574 6.43067 1.294 5.908C1.02333 5.38533 0.888 4.74133 0.888 3.976C0.888 3.584 0.925333 3.18267 1 2.772C1.084 2.37067 1.20533 1.974 1.364 1.582C1.532 1.19 1.742 0.812 1.994 0.448L3.576 1.344C3.39867 1.58667 3.24 1.848 3.1 2.128C2.96933 2.41733 2.86667 2.70667 2.792 2.996C2.71733 3.28533 2.68 3.55133 2.68 3.794C2.68 4.03667 2.71267 4.27933 2.778 4.522C2.85267 4.774 2.974 4.97933 3.142 5.138C3.31 5.306 3.54333 5.39 3.842 5.39C4.04733 5.39 4.234 5.32 4.402 5.18C4.57 5.04933 4.724 4.86733 4.864 4.634C5.004 4.41 5.12533 4.16267 5.228 3.892C5.34933 3.57467 5.48933 3.248 5.648 2.912C5.80667 2.576 5.998 2.25867 6.222 1.96C6.45533 1.67067 6.74 1.43267 7.076 1.246C7.42133 1.06867 7.84133 0.98 8.336 0.98C8.93333 0.98 9.45133 1.11067 9.89 1.372C10.3287 1.64267 10.674 2.02067 10.926 2.506C11.1873 2.99133 11.332 3.55133 11.36 4.186C11.36 5.01667 11.262 5.68867 11.066 6.202C10.87 6.72467 10.6367 7.19133 10.366 7.602L8.812 6.832ZM1.854 17.6401C1.76067 17.5281 1.63467 17.3181 1.476 17.0101C1.31733 16.7114 1.17733 16.3428 1.056 15.9041C0.934667 15.4654 0.878667 14.9801 0.888 14.4481C0.906667 13.6361 1.05133 12.9081 1.322 12.2641C1.602 11.6294 1.98 11.0881 2.456 10.6401C2.932 10.2014 3.478 9.86544 4.094 9.63211C4.71 9.39878 5.368 9.28211 6.068 9.28211C6.852 9.28211 7.57067 9.39878 8.224 9.63211C8.87733 9.87478 9.442 10.2154 9.918 10.6541C10.394 11.1021 10.7627 11.6341 11.024 12.2501C11.2853 12.8661 11.416 13.5474 11.416 14.2941C11.416 14.9848 11.3227 15.5961 11.136 16.1281C10.9493 16.6601 10.7487 17.0941 10.534 17.4301L8.616 16.6321C8.79333 16.3988 8.97533 16.0861 9.162 15.6941C9.358 15.3114 9.456 14.8681 9.456 14.3641C9.456 13.9721 9.372 13.5941 9.204 13.2301C9.04533 12.8754 8.81667 12.5581 8.518 12.2781C8.21933 12.0074 7.86933 11.7928 7.468 11.6341C7.076 11.4754 6.64667 11.3961 6.18 11.3961C5.68533 11.3961 5.23267 11.4661 4.822 11.6061C4.41133 11.7554 4.05667 11.9654 3.758 12.2361C3.46867 12.5068 3.24467 12.8288 3.086 13.2021C2.92733 13.5848 2.848 14.0141 2.848 14.4901C2.848 15.0408 2.93667 15.5121 3.114 15.9041C3.29133 16.2961 3.478 16.5948 3.674 16.8001L1.854 17.6401ZM11.304 23.2158C11.304 23.8598 11.22 24.4338 11.052 24.9378C10.8933 25.4418 10.66 25.8618 10.352 26.1978C10.0533 26.5432 9.68933 26.8045 9.26 26.9818C8.84 27.1592 8.364 27.2478 7.832 27.2478C7.412 27.2478 6.992 27.1825 6.572 27.0518C6.152 26.9305 5.76933 26.7252 5.424 26.4358C5.07867 26.1558 4.79867 25.7825 4.584 25.3158C4.37867 24.8492 4.276 24.2705 4.276 23.5798L4.276 22.1238H1V20.0938H11.304V23.2158ZM6.236 23.5658C6.236 23.8738 6.28733 24.1305 6.39 24.3358C6.49267 24.5412 6.62333 24.6998 6.782 24.8118C6.94067 24.9332 7.104 25.0172 7.272 25.0638C7.44933 25.1198 7.61267 25.1478 7.762 25.1478C7.874 25.1478 8.014 25.1292 8.182 25.0918C8.35933 25.0638 8.53667 24.9985 8.714 24.8958C8.89133 24.7932 9.04067 24.6345 9.162 24.4198C9.28333 24.2145 9.344 23.9345 9.344 23.5798V22.1238H6.236L6.236 23.5658ZM4.976 25.4698L1 28.0178V25.6518L4.92 23.0478L4.976 25.4698ZM6.138 29.126C6.84733 29.126 7.51933 29.2613 8.154 29.532C8.78867 29.8027 9.34867 30.176 9.834 30.652C10.3287 31.1373 10.716 31.6973 10.996 32.332C11.276 32.9667 11.416 33.648 11.416 34.376C11.416 35.0947 11.276 35.7713 10.996 36.406C10.716 37.0407 10.3287 37.6007 9.834 38.086C9.34867 38.5807 8.78867 38.9633 8.154 39.234C7.51933 39.514 6.84733 39.654 6.138 39.654C5.41 39.654 4.72867 39.514 4.094 39.234C3.45933 38.9633 2.89933 38.5807 2.414 38.086C1.938 37.6007 1.56467 37.0407 1.294 36.406C1.02333 35.7713 0.888 35.0947 0.888 34.376C0.888 33.648 1.02333 32.9667 1.294 32.332C1.56467 31.6973 1.938 31.1373 2.414 30.652C2.89933 30.176 3.45933 29.8027 4.094 29.532C4.72867 29.2613 5.41 29.126 6.138 29.126ZM6.138 31.226C5.68067 31.226 5.25133 31.3053 4.85 31.464C4.458 31.632 4.108 31.8607 3.8 32.15C3.50133 32.4487 3.268 32.7893 3.1 33.172C2.932 33.564 2.848 33.9887 2.848 34.446C2.848 34.8847 2.932 35.2907 3.1 35.664C3.268 36.0467 3.50133 36.378 3.8 36.658C4.108 36.938 4.458 37.1573 4.85 37.316C5.25133 37.4747 5.68067 37.554 6.138 37.554C6.60467 37.554 7.03867 37.47 7.44 37.302C7.84133 37.1433 8.19133 36.9193 8.49 36.63C8.798 36.35 9.036 36.0187 9.204 35.636C9.372 35.2533 9.456 34.838 9.456 34.39C9.456 33.942 9.372 33.5267 9.204 33.144C9.036 32.7613 8.798 32.4253 8.49 32.136C8.19133 31.8467 7.84133 31.6227 7.44 31.464C7.03867 31.3053 6.60467 31.226 6.138 31.226ZM11.304 42.0979V44.1279H2.96L2.96 48.9719H1L1 42.0979H11.304ZM11.304 51.4866V53.5166H2.96V58.3606H1V51.4866H11.304ZM1 65.8481H11.304V68.9281C11.304 69.9641 11.15 70.8461 10.842 71.5741C10.534 72.3021 10.1233 72.8855 9.61 73.3241C9.09667 73.7721 8.52267 74.0988 7.888 74.3041C7.25333 74.5095 6.614 74.6121 5.97 74.6121C5.20467 74.6121 4.514 74.4721 3.898 74.1921C3.29133 73.9215 2.76867 73.5481 2.33 73.0721C1.90067 72.5961 1.56933 72.0455 1.336 71.4201C1.112 70.7948 1 70.1321 1 69.4321V65.8481ZM2.96 67.8781V69.0821C2.96 69.5955 3.02533 70.0621 3.156 70.4821C3.296 70.9021 3.49667 71.2615 3.758 71.5601C4.01933 71.8681 4.346 72.1015 4.738 72.2601C5.13933 72.4281 5.59667 72.5121 6.11 72.5121C6.782 72.5121 7.328 72.4001 7.748 72.1761C8.17733 71.9615 8.50867 71.6908 8.742 71.3641C8.97533 71.0468 9.134 70.7201 9.218 70.3841C9.31133 70.0481 9.358 69.7635 9.358 69.5301V67.8781H2.96ZM6.138 76.4389C6.84733 76.4389 7.51933 76.5742 8.154 76.8449C8.78867 77.1156 9.34867 77.4889 9.834 77.9649C10.3287 78.4502 10.716 79.0102 10.996 79.6449C11.276 80.2796 11.416 80.9609 11.416 81.6889C11.416 82.4076 11.276 83.0842 10.996 83.7189C10.716 84.3536 10.3287 84.9136 9.834 85.3989C9.34867 85.8936 8.78867 86.2762 8.154 86.5469C7.51933 86.8269 6.84733 86.9669 6.138 86.9669C5.41 86.9669 4.72867 86.8269 4.094 86.5469C3.45933 86.2762 2.89933 85.8936 2.414 85.3989C1.938 84.9136 1.56467 84.3536 1.294 83.7189C1.02333 83.0842 0.888 82.4076 0.888 81.6889C0.888 80.9609 1.02333 80.2796 1.294 79.6449C1.56467 79.0102 1.938 78.4502 2.414 77.9649C2.89933 77.4889 3.45933 77.1156 4.094 76.8449C4.72867 76.5742 5.41 76.4389 6.138 76.4389ZM6.138 78.5389C5.68067 78.5389 5.25133 78.6182 4.85 78.7769C4.458 78.9449 4.108 79.1736 3.8 79.4629C3.50133 79.7616 3.268 80.1022 3.1 80.4849C2.932 80.8769 2.848 81.3016 2.848 81.7589C2.848 82.1976 2.932 82.6036 3.1 82.9769C3.268 83.3596 3.50133 83.6909 3.8 83.9709C4.108 84.2509 4.458 84.4702 4.85 84.6289C5.25133 84.7876 5.68067 84.8669 6.138 84.8669C6.60467 84.8669 7.03867 84.7829 7.44 84.6149C7.84133 84.4562 8.19133 84.2322 8.49 83.9429C8.798 83.6629 9.036 83.3316 9.204 82.9489C9.372 82.5662 9.456 82.1509 9.456 81.7029C9.456 81.2549 9.372 80.8396 9.204 80.4569C9.036 80.0742 8.798 79.7382 8.49 79.4489C8.19133 79.1596 7.84133 78.9356 7.44 78.7769C7.03867 78.6182 6.60467 78.5389 6.138 78.5389ZM11.234 87.6948V90.0748L4.766 92.2728L4.906 91.9508L9.68 93.8688L6.894 94.8068L0.524 91.8388L11.234 87.6948ZM11.234 92.8608V94.8768L4.976 97.4108L5.032 97.0468L11.234 98.9368V101.121L0.552 97.1448L11.234 92.8608ZM0.58 112.551L7.636 104.739L7.3 105.341L1 105.383V103.325H11.71V103.409L4.682 111.053L4.878 110.605L11.304 110.563L11.304 112.607H0.58V112.551Z" fill="#333333"/>
<path d="M8.812 6.832L7.9349 6.35169L7.43449 7.26548L8.36802 7.72804L8.812 6.832ZM9.344 5.628L8.39978 5.29862L8.39749 5.30533L9.344 5.628ZM9.288 3.458L10.1058 2.88251L10.1058 2.88251L9.288 3.458ZM7.832 3.36L7.14234 2.63586L7.12468 2.65268L7.10786 2.67034L7.832 3.36ZM7.328 4.102L6.43351 3.65475L6.42819 3.66573L7.328 4.102ZM6.922 5.054L7.85833 5.40513L7.85943 5.40219L6.922 5.054ZM6.516 5.936L5.63919 5.45517L5.63006 5.47181L5.62157 5.48879L6.516 5.936ZM5.942 6.734L5.23489 6.02689L5.22768 6.03411L5.22061 6.04147L5.942 6.734ZM5.088 7.294L4.71228 6.36722L4.70339 6.37092L5.088 7.294ZM2.386 7.098L1.86888 7.95392H1.86889L2.386 7.098ZM1.294 5.908L0.405919 6.3679L0.41252 6.38022L1.294 5.908ZM1 2.772L0.0212097 2.56714L0.0184975 2.58009L0.0161304 2.59311L1 2.772ZM1.364 1.582L0.444855 1.18808L0.440859 1.1974L0.437054 1.20681L1.364 1.582ZM1.994 0.448L2.48682 -0.422132L1.69185 -0.87238L1.17181 -0.12121L1.994 0.448ZM3.576 1.344L4.38339 1.93402L5.04599 1.02731L4.06882 0.473868L3.576 1.344ZM3.1 2.128L2.20557 1.68079L2.19675 1.69843L2.18863 1.71641L3.1 2.128ZM2.792 2.996L3.76028 3.24588V3.24588L2.792 2.996ZM2.778 4.522L1.81238 4.78197L1.81564 4.79407L1.8192 4.80609L2.778 4.522ZM3.142 5.138L3.84911 4.43089L3.83901 4.42079L3.82862 4.41099L3.142 5.138ZM4.402 5.18L3.78806 4.39065L3.77476 4.40099L3.76182 4.41178L4.402 5.18ZM4.864 4.634L4.016 4.104L4.01118 4.11171L4.00651 4.1195L4.864 4.634ZM5.228 3.892L4.29395 3.53486L4.293 3.53735L5.228 3.892ZM5.648 2.912L4.74375 2.48499V2.48499L5.648 2.912ZM6.222 1.96L5.44359 1.33225L5.43255 1.34593L5.422 1.36L6.222 1.96ZM7.076 1.246L6.6192 0.356433L6.60465 0.363902L6.59036 0.371843L7.076 1.246ZM9.89 1.372L10.4151 0.520964L10.4085 0.516879L10.4018 0.512898L9.89 1.372ZM10.926 2.506L10.0385 2.96682L10.042 2.97348L10.0455 2.9801L10.926 2.506ZM11.36 4.186H12.36V4.16395L12.359 4.14193L11.36 4.186ZM11.066 6.202L10.1318 5.84529L10.1297 5.85088L11.066 6.202ZM10.366 7.602L9.92202 8.49804L10.7143 8.89063L11.201 8.15231L10.366 7.602ZM9.6891 7.31231C9.93056 6.87138 10.1314 6.4174 10.2905 5.95067L8.39749 5.30533C8.2766 5.65994 8.12277 6.00862 7.9349 6.35169L9.6891 7.31231ZM10.2882 5.95737C10.458 5.47056 10.554 4.98055 10.554 4.494L8.554 4.494C8.554 4.71678 8.50998 4.98277 8.3998 5.29863L10.2882 5.95737ZM10.554 4.494C10.554 3.93333 10.4423 3.36066 10.1058 2.88251L8.47019 4.03349C8.48838 4.05934 8.554 4.17734 8.554 4.494L10.554 4.494ZM10.1058 2.88251C9.71081 2.3212 9.11348 2.08 8.49 2.08V4.08C8.54916 4.08 8.55284 4.09028 8.52741 4.07824C8.51521 4.07246 8.50182 4.06402 8.48956 4.05358C8.4775 4.04329 8.4714 4.0352 8.47019 4.03349L10.1058 2.88251ZM8.49 2.08C7.96009 2.08 7.50098 2.2943 7.14234 2.63586L8.52166 4.08414C8.53334 4.07301 8.54042 4.06799 8.54237 4.06667C8.54416 4.06547 8.54168 4.06733 8.53506 4.07015C8.52829 4.07303 8.51978 4.0758 8.5104 4.0777C8.50105 4.07959 8.49386 4.08 8.49 4.08V2.08ZM7.10786 2.67034C6.8389 2.95275 6.61738 3.28718 6.43357 3.65479L8.22243 4.54921C8.33729 4.31948 8.45176 4.15925 8.55614 4.04966L7.10786 2.67034ZM6.42819 3.66573C6.26467 4.00298 6.11683 4.34974 5.98457 4.70581L7.85943 5.40219C7.96984 5.10493 8.09267 4.81702 8.22781 4.53827L6.42819 3.66573ZM5.98567 4.70288C5.89096 4.95544 5.77574 5.20616 5.63919 5.45517L7.39281 6.41683C7.5736 6.08717 7.72904 5.74989 7.85833 5.40512L5.98567 4.70288ZM5.62157 5.48879C5.51972 5.69248 5.39131 5.87048 5.23489 6.02689L6.64911 7.44111C6.95936 7.13086 7.21361 6.77685 7.41043 6.38321L5.62157 5.48879ZM5.22061 6.04147C5.10781 6.15897 4.94693 6.27214 4.7123 6.36726L5.46371 8.22074C5.91973 8.03586 6.32819 7.7757 6.66339 7.42653L5.22061 6.04147ZM4.70339 6.37092C4.52453 6.44545 4.24915 6.504 3.842 6.504L3.842 8.504C4.42418 8.504 4.97947 8.42256 5.47262 8.21708L4.70339 6.37092ZM3.842 6.504C3.50189 6.504 3.19533 6.41863 2.90312 6.24208L1.86889 7.95392C2.47267 8.3187 3.13678 8.504 3.842 8.504L3.842 6.504ZM2.90312 6.24208C2.62841 6.07611 2.38218 5.82162 2.17548 5.43578L0.41252 6.38022C0.76582 7.03971 1.24759 7.57855 1.86888 7.95392L2.90312 6.24208ZM2.18199 5.44815C2.00367 5.10379 1.888 4.62775 1.888 3.976L-0.112 3.976C-0.112 4.85492 0.0429983 5.66687 0.406006 6.36785L2.18199 5.44815ZM1.888 3.976C1.888 3.64772 1.91925 3.30631 1.98387 2.95089L0.0161304 2.59311C-0.0685797 3.05902 -0.112 3.52028 -0.112 3.976L1.888 3.976ZM1.97879 2.97686C2.05023 2.63553 2.15389 2.2958 2.29095 1.95719L0.437054 1.20681C0.256774 1.6522 0.117767 2.1058 0.0212097 2.56714L1.97879 2.97686ZM2.28314 1.97592C2.42379 1.64774 2.60085 1.32826 2.81619 1.01721L1.17181 -0.12121C0.883152 0.295737 0.640207 0.732258 0.444855 1.18808L2.28314 1.97592ZM1.50118 1.31813L3.08318 2.21413L4.06882 0.473868L2.48682 -0.422132L1.50118 1.31813ZM2.76861 0.753983C2.55699 1.04356 2.36951 1.3529 2.20557 1.68079L3.99443 2.57521C4.11049 2.3431 4.24034 2.12977 4.38339 1.93402L2.76861 0.753983ZM2.18863 1.71641C2.03586 2.0547 1.91355 2.39803 1.82372 2.74612L3.76028 3.24588C3.81978 3.0153 3.90281 2.77997 4.01137 2.53959L2.18863 1.71641ZM1.82372 2.74612C1.73264 3.09906 1.68 3.45026 1.68 3.794H3.68C3.68 3.6524 3.70202 3.47161 3.76028 3.24588L1.82372 2.74612ZM1.68 3.794C1.68 4.12754 1.72504 4.45757 1.81238 4.78197L3.74362 4.26203C3.70029 4.1011 3.68 3.94579 3.68 3.794H1.68ZM1.8192 4.80609C1.93695 5.2035 2.14238 5.56941 2.45538 5.86501L3.82862 4.41099C3.80562 4.38926 3.76838 4.3445 3.7368 4.23791L1.8192 4.80609ZM2.43489 5.84511C2.83578 6.246 3.35 6.39 3.842 6.39V4.39C3.78523 4.39 3.7701 4.38193 3.78172 4.38611C3.78778 4.3883 3.79863 4.39296 3.81202 4.40136C3.82553 4.40984 3.83823 4.42002 3.84911 4.43089L2.43489 5.84511ZM3.842 6.39C4.29718 6.39 4.70709 6.22747 5.04218 5.94822L3.76182 4.41178C3.75572 4.41686 3.76341 4.40922 3.78488 4.40117C3.80719 4.3928 3.82841 4.39 3.842 4.39V6.39ZM5.01594 5.96935C5.30434 5.74504 5.53488 5.45952 5.72149 5.1485L4.00651 4.1195C3.91313 4.27514 3.83566 4.35363 3.78806 4.39065L5.01594 5.96935ZM5.712 5.164C5.88978 4.87954 6.03932 4.57271 6.163 4.24665L4.293 3.53735C4.21134 3.75263 4.11822 3.94046 4.016 4.104L5.712 5.164ZM6.16205 4.24914C6.27355 3.95754 6.40341 3.6542 6.55225 3.33901L4.74375 2.48499C4.57526 2.8418 4.42512 3.1918 4.29395 3.53486L6.16205 4.24914ZM6.55225 3.33901C6.68196 3.06433 6.83831 2.80492 7.022 2.56L5.422 1.36C5.15769 1.71241 4.93138 2.08767 4.74375 2.48499L6.55225 3.33901ZM7.00041 2.58775C7.15017 2.40206 7.33427 2.24647 7.56164 2.12016L6.59036 0.371843C6.14573 0.618859 5.7605 0.939273 5.44359 1.33225L7.00041 2.58775ZM7.5328 2.13557C7.70339 2.04797 7.95783 1.98 8.336 1.98V-0.02C7.72484 -0.02 7.13928 0.0893642 6.6192 0.356433L7.5328 2.13557ZM8.336 1.98C8.78411 1.98 9.11891 2.07664 9.3782 2.2311L10.4018 0.512898C9.78375 0.144697 9.08255 -0.02 8.336 -0.02V1.98ZM9.36489 2.22304C9.64024 2.39293 9.86453 2.63175 10.0385 2.96682L11.8135 2.04518C11.4835 1.40959 11.0171 0.892402 10.4151 0.520964L9.36489 2.22304ZM10.0455 2.9801C10.2253 3.31402 10.3386 3.72292 10.361 4.23007L12.359 4.14193C12.3254 3.37975 12.1493 2.66865 11.8065 2.0319L10.0455 2.9801ZM10.36 4.186C10.36 4.95084 10.268 5.48858 10.1318 5.8453L12.0002 6.5587C12.256 5.88876 12.36 5.08249 12.36 4.186H10.36ZM10.1297 5.85088C9.95646 6.31278 9.7555 6.71113 9.53104 7.05169L11.201 8.15231C11.5178 7.67154 11.7835 7.13656 12.0023 6.55312L10.1297 5.85088ZM10.81 6.70596L9.25598 5.93596L8.36802 7.72804L9.92202 8.49804L10.81 6.70596ZM1.854 17.6401L1.08578 18.2803L1.57674 18.8694L2.27306 18.5481L1.854 17.6401ZM1.476 17.0101L2.36505 16.5521L2.35912 16.541L1.476 17.0101ZM1.056 15.9041L2.01981 15.6375H2.01981L1.056 15.9041ZM0.888 14.4481L-0.111751 14.4251L-0.111846 14.4306L0.888 14.4481ZM1.322 12.2641L0.407083 11.8605L0.403526 11.8685L0.400113 11.8766L1.322 12.2641ZM2.456 10.6401L1.77828 9.90471L1.77064 9.91191L2.456 10.6401ZM4.094 9.63211L4.44823 10.5673L4.094 9.63211ZM8.224 9.63211L8.57221 8.69461L8.56034 8.69037L8.224 9.63211ZM9.918 10.6541L10.6034 9.92587L10.5957 9.91875L9.918 10.6541ZM11.024 12.2501L10.1034 12.6407L11.024 12.2501ZM11.136 16.1281L12.0796 16.4592H12.0796L11.136 16.1281ZM10.534 17.4301L10.1499 18.3534L10.9248 18.6758L11.3767 17.9685L10.534 17.4301ZM8.616 16.6321L7.81984 16.027L7.03632 17.058L8.23186 17.5554L8.616 16.6321ZM9.162 15.6941L8.27196 15.2382L8.26536 15.2511L8.25914 15.2642L9.162 15.6941ZM9.204 13.2301L8.29112 13.6385L8.29604 13.6492L9.204 13.2301ZM8.518 12.2781L9.20194 11.5486L9.19578 11.5428L9.18952 11.5371L8.518 12.2781ZM7.468 11.6341L7.09279 12.5611L7.10034 12.5641L7.468 11.6341ZM4.822 11.6061L4.49933 10.6596L4.48976 10.6629L4.48026 10.6663L4.822 11.6061ZM3.758 12.2361L3.08648 11.4951L3.08062 11.5004L3.07484 11.5058L3.758 12.2361ZM3.086 13.2021L2.16563 12.811L2.16226 12.8191L3.086 13.2021ZM3.114 15.9041L4.02511 15.4919L3.114 15.9041ZM3.674 16.8001L4.09306 17.7081L5.36345 17.1217L4.39736 16.1096L3.674 16.8001ZM2.62222 16.9999C2.62316 17.0011 2.59872 16.9703 2.54699 16.8841C2.49858 16.8034 2.43812 16.6941 2.36497 16.5522L0.587026 17.4681C0.746049 17.7768 0.915035 18.0754 1.08578 18.2803L2.62222 16.9999ZM2.35912 16.541C2.24407 16.3244 2.12792 16.0284 2.01981 15.6375L0.0921888 16.1707C0.22675 16.6572 0.390593 17.0985 0.592884 17.4793L2.35912 16.541ZM2.01981 15.6375C1.92795 15.3054 1.87992 14.9175 1.88785 14.4657L-0.111846 14.4306C-0.122586 15.0427 -0.0586185 15.6255 0.0921888 16.1707L2.01981 15.6375ZM1.88774 14.4711C1.90398 13.7643 2.029 13.1629 2.24389 12.6516L0.400113 11.8766C0.0736666 12.6534 -0.0906506 13.5079 -0.111736 14.4251L1.88774 14.4711ZM2.23692 12.6677C2.46625 12.1479 2.76871 11.719 3.14137 11.3683L1.77064 9.91191C1.19129 10.4572 0.737751 11.111 0.407083 11.8605L2.23692 12.6677ZM3.13368 11.3755C3.51395 11.025 3.94967 10.7561 4.44823 10.5673L3.73977 8.69695C3.00633 8.97477 2.35005 9.37786 1.77832 9.90475L3.13368 11.3755ZM4.44823 10.5673C4.9441 10.3794 5.48137 10.2821 6.068 10.2821L6.068 8.28211C5.25463 8.28211 4.4759 8.41812 3.73977 8.69695L4.44823 10.5673ZM6.068 10.2821C6.75213 10.2821 7.35534 10.3837 7.88766 10.5739L8.56034 8.69037C7.78599 8.41382 6.95187 8.28211 6.068 8.28211L6.068 10.2821ZM7.87581 10.5695C8.41666 10.7704 8.8671 11.0455 9.24032 11.3895L10.5957 9.91875C10.0169 9.38537 9.33801 8.97913 8.57219 8.69468L7.87581 10.5695ZM9.23264 11.3823C9.60524 11.733 9.89492 12.1492 10.1034 12.6407L11.9446 11.8596C11.6304 11.119 11.1828 10.4712 10.6034 9.92591L9.23264 11.3823ZM10.1034 12.6407C10.3066 13.1196 10.416 13.6661 10.416 14.2941H12.416C12.416 13.4288 12.2641 12.6127 11.9446 11.8596L10.1034 12.6407ZM10.416 14.2941C10.416 14.8965 10.3344 15.3923 10.1924 15.797L12.0796 16.4592C12.3109 15.7999 12.416 15.0731 12.416 14.2941H10.416ZM10.1924 15.797C10.0217 16.2836 9.85131 16.6413 9.6913 16.8917L11.3767 17.9685C11.646 17.5469 11.877 17.0366 12.0796 16.4592L10.1924 15.797ZM10.9181 16.5068L9.00014 15.7088L8.23186 17.5554L10.1499 18.3534L10.9181 16.5068ZM9.41216 17.2372C9.64562 16.93 9.86137 16.5514 10.0649 16.124L8.25914 15.2642C8.0893 15.6208 7.94105 15.8675 7.81984 16.027L9.41216 17.2372ZM10.052 16.15C10.3318 15.6038 10.456 14.9994 10.456 14.3641H8.456C8.456 14.7369 8.38421 15.0191 8.27196 15.2382L10.052 16.15ZM10.456 14.3641C10.456 13.8241 10.3392 13.3034 10.112 12.8111L8.29604 13.6492C8.40482 13.8849 8.456 14.1202 8.456 14.3641H10.456ZM10.1168 12.8217C9.90105 12.3394 9.59218 11.9144 9.20194 11.5486L7.83406 13.0076C8.04115 13.2018 8.18961 13.4114 8.29118 13.6385L10.1168 12.8217ZM9.18952 11.5371C8.79562 11.1802 8.34086 10.9039 7.83566 10.7041L7.10034 12.5641C7.39781 12.6817 7.64304 12.8347 7.84648 13.0191L9.18952 11.5371ZM7.84319 10.7072C7.32022 10.4955 6.76193 10.3961 6.18 10.3961V12.3961C6.5314 12.3961 6.83178 12.4554 7.09281 12.5611L7.84319 10.7072ZM6.18 10.3961C5.59072 10.3961 5.02731 10.4796 4.49933 10.6596L5.14467 12.5526C5.43802 12.4526 5.77995 12.3961 6.18 12.3961V10.3961ZM4.48026 10.6663C3.95814 10.8562 3.48897 11.1304 3.08648 11.4951L4.42952 12.9771C4.62437 12.8005 4.86453 12.6547 5.16374 12.5459L4.48026 10.6663ZM3.07484 11.5058C2.6812 11.8741 2.37755 12.3124 2.16567 12.811L4.00633 13.5933C4.11179 13.3451 4.25613 13.1395 4.44116 12.9664L3.07484 11.5058ZM2.16226 12.8191C1.94631 13.3399 1.848 13.9021 1.848 14.4901H3.848C3.848 14.1261 3.90836 13.8296 4.00974 13.5851L2.16226 12.8191ZM1.848 14.4901C1.848 15.1446 1.953 15.7639 2.20289 16.3163L4.02511 15.4919C3.92033 15.2603 3.848 14.9369 3.848 14.4901H1.848ZM2.20289 16.3163C2.40524 16.7636 2.64759 17.1731 2.95064 17.4906L4.39736 16.1096C4.30841 16.0165 4.17743 15.8286 4.02511 15.4919L2.20289 16.3163ZM3.25494 15.8921L1.43494 16.7322L2.27306 18.5481L4.09306 17.7081L3.25494 15.8921ZM11.052 24.9378L10.1033 24.6216L10.1007 24.6295L10.0982 24.6375L11.052 24.9378ZM10.352 26.1978L9.61485 25.5221L9.60509 25.5328L9.59564 25.5437L10.352 26.1978ZM9.26 26.9818L8.87823 26.0575L8.87103 26.0606L9.26 26.9818ZM6.572 27.0518L6.86907 26.097L6.85933 26.0939L6.84954 26.0911L6.572 27.0518ZM5.424 26.4358L6.06622 25.6693L6.06005 25.6641L6.0538 25.6591L5.424 26.4358ZM4.584 25.3158L3.66868 25.7186L3.67203 25.7262L3.67551 25.7337L4.584 25.3158ZM4.276 22.1238H5.276V21.1238H4.276V22.1238ZM1 22.1238H0V23.1238H1V22.1238ZM1 20.0938L1 19.0938H0L0 20.0938H1ZM11.304 20.0938H12.304L12.304 19.0938H11.304L11.304 20.0938ZM6.39 24.3358L5.49557 24.783H5.49557L6.39 24.3358ZM6.782 24.8118L7.38945 24.0175L7.37428 24.0059L7.35868 23.9949L6.782 24.8118ZM7.272 25.0638L7.57313 24.1102L7.55647 24.105L7.53964 24.1003L7.272 25.0638ZM8.182 25.0918L8.02604 24.1041L7.99537 24.1089L7.96507 24.1156L8.182 25.0918ZM8.714 24.8958L8.21296 24.0304L8.21296 24.0304L8.714 24.8958ZM9.162 24.4198L8.30107 23.9111L8.29617 23.9194L8.29144 23.9278L9.162 24.4198ZM9.344 22.1238H10.344V21.1238H9.344V22.1238ZM6.236 22.1238V21.1238H5.236V22.1238H6.236ZM4.976 25.4698L5.51556 26.3118L5.98872 26.0086L5.97573 25.4467L4.976 25.4698ZM1 28.0178H0V29.8464L1.53956 28.8598L1 28.0178ZM1 25.6518L0.446673 24.8189L0 25.1156V25.6518H1ZM4.92 23.0478L5.91973 23.0247L5.8778 21.211L4.36667 22.2149L4.92 23.0478ZM10.304 23.2158C10.304 23.7744 10.231 24.2386 10.1033 24.6216L12.0007 25.2541C12.209 24.6291 12.304 23.9453 12.304 23.2158H10.304ZM10.0982 24.6375C9.97643 25.0242 9.80948 25.3098 9.61485 25.5221L11.0892 26.8736C11.5105 26.4139 11.8102 25.8595 12.0058 25.2381L10.0982 24.6375ZM9.59564 25.5437C9.40088 25.7689 9.16594 25.9387 8.87824 26.0576L9.64176 27.9061C10.2127 27.6703 10.7058 27.3175 11.1084 26.852L9.59564 25.5437ZM8.87103 26.0606C8.59291 26.178 8.25241 26.2478 7.832 26.2478V28.2478C8.47559 28.2478 9.08709 28.1403 9.64897 27.9031L8.87103 26.0606ZM7.832 26.2478C7.51741 26.2478 7.19745 26.1991 6.86907 26.097L6.27493 28.0067C6.78655 28.1659 7.30659 28.2478 7.832 28.2478V26.2478ZM6.84954 26.0911C6.56742 26.0096 6.30818 25.872 6.06622 25.6693L4.78178 27.2023C5.23049 27.5783 5.73658 27.8514 6.29446 28.0125L6.84954 26.0911ZM6.0538 25.6591C5.84491 25.4897 5.65299 25.2468 5.49249 24.8979L3.67551 25.7337C3.94434 26.3181 4.31243 26.822 4.7942 27.2126L6.0538 25.6591ZM5.49932 24.9131C5.36589 24.6099 5.276 24.1782 5.276 23.5798H3.276C3.276 24.3628 3.39144 25.0885 3.66868 25.7186L5.49932 24.9131ZM5.276 23.5798L5.276 22.1238H3.276V23.5798H5.276ZM4.276 21.1238H1V23.1238H4.276L4.276 21.1238ZM2 22.1238V20.0938H0V22.1238H2ZM1 21.0938H11.304L11.304 19.0938H1L1 21.0938ZM10.304 20.0938V23.2158H12.304V20.0938H10.304ZM5.236 23.5658C5.236 23.9785 5.30393 24.3998 5.49557 24.783L7.28443 23.8886C7.27074 23.8612 7.236 23.7692 7.236 23.5658H5.236ZM5.49557 24.783C5.6586 25.1091 5.88929 25.4057 6.20532 25.6288L7.35868 23.9949C7.35738 23.9939 7.32673 23.9732 7.28443 23.8886L5.49557 24.783ZM6.17455 25.6062C6.42002 25.7939 6.69675 25.9419 7.00436 26.0273L7.53964 24.1003C7.51125 24.0924 7.46131 24.0724 7.38945 24.0175L6.17455 25.6062ZM6.97087 26.0174C7.22277 26.097 7.48903 26.1478 7.762 26.1478V24.1478C7.7363 24.1478 7.67589 24.1427 7.57313 24.1102L6.97087 26.0174ZM7.762 26.1478C7.97481 26.1478 8.19332 26.1137 8.39893 26.068L7.96507 24.1156C7.83468 24.1446 7.77319 24.1478 7.762 24.1478V26.1478ZM8.33796 26.0796C8.65279 26.0299 8.94609 25.917 9.21504 25.7613L8.21296 24.0304C8.12724 24.08 8.06588 24.0978 8.02604 24.1041L8.33796 26.0796ZM9.21504 25.7613C9.57527 25.5527 9.8414 25.2501 10.0326 24.9119L8.29144 23.9278C8.2652 23.9742 8.24376 24.0007 8.2308 24.0145C8.22435 24.0213 8.2197 24.0253 8.21706 24.0275C8.21446 24.0295 8.21313 24.0303 8.21296 24.0304L9.21504 25.7613ZM10.0229 24.9286C10.2692 24.5118 10.344 24.0323 10.344 23.5798H8.344C8.344 23.8367 8.29745 23.9172 8.30107 23.9111L10.0229 24.9286ZM10.344 23.5798V22.1238H8.344V23.5798H10.344ZM9.344 21.1238H6.236L6.236 23.1238H9.344V21.1238ZM5.236 22.1238L5.236 23.5658H7.236L7.236 22.1238H5.236ZM4.43644 24.6279L0.460442 27.1759L1.53956 28.8598L5.51556 26.3118L4.43644 24.6279ZM2 28.0178V25.6518H0V28.0178H2ZM1.55333 26.4848L5.47333 23.8808L4.36667 22.2149L0.446673 24.8189L1.55333 26.4848ZM3.92027 23.0709L3.97627 25.4929L5.97573 25.4467L5.91973 23.0247L3.92027 23.0709ZM8.154 29.532L7.76171 30.4519L8.154 29.532ZM9.834 30.652L10.5343 29.9382L10.5342 29.9381L9.834 30.652ZM10.996 32.332L11.9109 31.9284H11.9109L10.996 32.332ZM10.996 36.406L11.9109 36.8097H11.9109L10.996 36.406ZM9.834 38.086L9.13366 37.3722L9.12686 37.3789L9.12019 37.3857L9.834 38.086ZM8.154 39.234L7.76168 38.3141L7.75036 38.3191L8.154 39.234ZM4.094 39.234L4.49767 38.319L4.48629 38.3142L4.094 39.234ZM2.414 38.086L1.70006 38.7862L1.70019 38.7864L2.414 38.086ZM1.294 36.406L0.374157 36.7983L1.294 36.406ZM1.294 32.332L2.21384 32.7243L1.294 32.332ZM2.414 30.652L1.71379 29.9381L1.70686 29.9449L1.70006 29.9518L2.414 30.652ZM4.094 29.532L4.48629 30.4519H4.48629L4.094 29.532ZM4.85 31.464L4.48234 30.5341L4.46913 30.5393L4.45608 30.5449L4.85 31.464ZM3.8 32.15L3.11532 31.4212L3.10394 31.4319L3.09289 31.4429L3.8 32.15ZM3.1 33.172L2.18432 32.77L2.18085 32.7781L3.1 33.172ZM3.1 35.664L4.01568 35.262L4.01192 35.2537L3.1 35.664ZM3.8 36.658L3.11606 37.3876L3.12165 37.3928L3.12733 37.398L3.8 36.658ZM4.85 37.316L4.47479 38.243L4.48234 38.246L4.85 37.316ZM7.44 37.302L7.07234 36.3721L7.06306 36.3757L7.05386 36.3796L7.44 37.302ZM8.49 36.63L7.81733 35.8901L7.80559 35.9007L7.79421 35.9118L8.49 36.63ZM9.204 35.636L8.28836 35.234L9.204 35.636ZM8.49 32.136L7.79421 32.8543L7.79972 32.8596L7.80533 32.8649L8.49 32.136ZM7.44 31.464L7.07234 32.394H7.07234L7.44 31.464ZM6.138 30.126C6.71638 30.126 7.25458 30.2356 7.76171 30.4519L8.54629 28.6122C7.78408 28.2871 6.97829 28.126 6.138 28.126L6.138 30.126ZM7.76171 30.4519C8.28357 30.6744 8.73873 30.9785 9.13379 31.366L10.5342 29.9381C9.9586 29.3735 9.29377 28.931 8.54629 28.6122L7.76171 30.4519ZM9.13366 31.3658C9.53768 31.7622 9.85223 32.2169 10.0811 32.7357L11.9109 31.9284C11.5798 31.1778 11.1197 30.5125 10.5343 29.9382L9.13366 31.3658ZM10.0811 32.7357C10.3022 33.2369 10.416 33.78 10.416 34.376H12.416C12.416 33.516 12.2498 32.6965 11.9109 31.9284L10.0811 32.7357ZM10.416 34.376C10.416 34.9608 10.3029 35.4995 10.0811 36.0024L11.9109 36.8097C12.2491 36.0432 12.416 35.2286 12.416 34.376H10.416ZM10.0811 36.0024C9.85223 36.5211 9.53768 36.9758 9.13366 37.3722L10.5343 38.7998C11.1197 38.2256 11.5798 37.5603 11.9109 36.8097L10.0811 36.0024ZM9.12019 37.3857C8.7262 37.7872 8.27532 38.0951 7.76171 38.3142L8.54629 40.1539C9.30201 39.8316 9.97113 39.3741 10.5478 38.7864L9.12019 37.3857ZM7.75036 38.3191C7.24578 38.5417 6.71156 38.654 6.138 38.654V40.654C6.98311 40.654 7.79289 40.4863 8.55764 40.1489L7.75036 38.3191ZM6.138 38.654C5.54198 38.654 4.99887 38.5402 4.49764 38.3191L3.69036 40.1489C4.45846 40.4878 5.27802 40.654 6.138 40.654V38.654ZM4.48629 38.3142C3.97268 38.0951 3.5218 37.7872 3.12781 37.3857L1.70019 38.7864C2.27687 39.3741 2.94599 39.8316 3.70171 40.1539L4.48629 38.3142ZM3.12794 37.3858C2.74048 36.9907 2.4364 36.5356 2.21384 36.0137L0.374157 36.7983C0.692936 37.5458 1.13552 38.2106 1.70006 38.7862L3.12794 37.3858ZM2.21384 36.0137C1.99827 35.5082 1.888 34.9656 1.888 34.376H-0.112C-0.112 35.2238 0.048399 36.0345 0.374157 36.7983L2.21384 36.0137ZM1.888 34.376C1.888 33.7753 1.99895 33.2282 2.21384 32.7243L0.374157 31.9397C0.0477123 32.7052 -0.112 33.5207 -0.112 34.376H1.888ZM2.21384 32.7243C2.4364 32.2024 2.74048 31.7473 3.12794 31.3522L1.70006 29.9518C1.13552 30.5274 0.692935 31.1922 0.374157 31.9397L2.21384 32.7243ZM3.11421 31.366C3.50927 30.9785 3.96443 30.6744 4.48629 30.4519L3.70171 28.6122C2.95423 28.931 2.2894 29.3735 1.71379 29.9381L3.11421 31.366ZM4.48629 30.4519C4.99016 30.237 5.53727 30.126 6.138 30.126L6.138 28.126C5.28273 28.126 4.46717 28.2857 3.70171 28.6122L4.48629 30.4519ZM6.138 30.226C5.5624 30.226 5.0076 30.3264 4.48234 30.5341L5.21766 32.394C5.49507 32.2843 5.79893 32.226 6.138 32.226V30.226ZM4.45608 30.5449C3.95781 30.7584 3.50919 31.0512 3.11532 31.4212L4.48468 32.8789C4.70681 32.6702 4.95819 32.5056 5.24392 32.3832L4.45608 30.5449ZM3.09289 31.4429C2.70732 31.8285 2.40285 32.2723 2.18436 32.77L4.01564 33.574C4.13315 33.3064 4.29535 33.0689 4.50711 32.8571L3.09289 31.4429ZM2.18085 32.7781C1.95573 33.3034 1.848 33.8632 1.848 34.446H3.848C3.848 34.1142 3.90827 33.8247 4.01915 33.5659L2.18085 32.7781ZM1.848 34.446C1.848 35.0159 1.95795 35.563 2.18808 36.0744L4.01192 35.2537C3.90605 35.0184 3.848 34.7535 3.848 34.446H1.848ZM2.18436 36.066C2.40551 36.5697 2.71674 37.0132 3.11606 37.3876L4.48394 35.9285C4.28593 35.7428 4.13049 35.5236 4.01564 35.262L2.18436 36.066ZM3.12733 37.398C3.52408 37.7586 3.97517 38.0407 4.47481 38.243L5.22519 36.3891C4.94083 36.274 4.69192 36.1174 4.47267 35.9181L3.12733 37.398ZM4.48234 38.246C5.0076 38.4536 5.5624 38.554 6.138 38.554V36.554C5.79893 36.554 5.49507 36.4957 5.21766 36.3861L4.48234 38.246ZM6.138 38.554C6.72751 38.554 7.29383 38.4473 7.82614 38.2245L7.05386 36.3796C6.7835 36.4927 6.48182 36.554 6.138 36.554V38.554ZM7.80766 38.232C8.32651 38.0269 8.78915 37.7325 9.1858 37.3483L7.79421 35.9118C7.59352 36.1062 7.35616 36.2598 7.07234 36.3721L7.80766 38.232ZM9.16267 37.37C9.5749 36.9952 9.89549 36.5486 10.1196 36.038L8.28836 35.234C8.17651 35.4888 8.0211 35.7048 7.81733 35.8901L9.16267 37.37ZM10.1196 36.038C10.3472 35.5197 10.456 34.9663 10.456 34.39H8.456C8.456 34.7097 8.3968 34.987 8.28836 35.234L10.1196 36.038ZM10.456 34.39C10.456 33.8137 10.3472 33.2603 10.1196 32.742L8.28836 33.546C8.3968 33.793 8.456 34.0703 8.456 34.39H10.456ZM10.1196 32.742C9.89685 32.2345 9.57978 31.7877 9.17468 31.4072L7.80533 32.8649C8.01622 33.063 8.17515 33.2882 8.28836 33.546L10.1196 32.742ZM9.1858 31.4178C8.78915 31.0335 8.32651 30.7392 7.80766 30.5341L7.07234 32.394C7.35616 32.5062 7.59352 32.6598 7.79421 32.8543L9.1858 31.4178ZM7.80766 30.5341C7.28006 30.3255 6.72023 30.226 6.138 30.226V32.226C6.4891 32.226 6.79728 32.2852 7.07234 32.394L7.80766 30.5341ZM11.304 42.0979H12.304V41.0979H11.304V42.0979ZM11.304 44.1279V45.1279H12.304V44.1279H11.304ZM2.96 44.1279V43.1279H1.96V44.1279H2.96ZM2.96 48.9719V49.9719H3.96V48.9719H2.96ZM1 48.9719H0V49.9719H1V48.9719ZM1 42.0979V41.0979H0V42.0979H1ZM10.304 42.0979V44.1279H12.304V42.0979H10.304ZM11.304 43.1279H2.96V45.1279H11.304V43.1279ZM1.96 44.1279L1.96 48.9719H3.96L3.96 44.1279H1.96ZM2.96 47.9719H1V49.9719H2.96V47.9719ZM2 48.9719L2 42.0979H0L0 48.9719H2ZM1 43.0979H11.304V41.0979H1V43.0979ZM11.304 51.4866H12.304V50.4866H11.304V51.4866ZM11.304 53.5166V54.5166H12.304V53.5166H11.304ZM2.96 53.5166V52.5166H1.96V53.5166H2.96ZM2.96 58.3606L2.96 59.3606H3.96L3.96 58.3606H2.96ZM1 58.3606H0L0 59.3606H1L1 58.3606ZM1 51.4866V50.4866H0V51.4866H1ZM10.304 51.4866V53.5166H12.304V51.4866H10.304ZM11.304 52.5166H2.96V54.5166H11.304V52.5166ZM1.96 53.5166V58.3606H3.96V53.5166H1.96ZM2.96 57.3606H1L1 59.3606H2.96L2.96 57.3606ZM2 58.3606V51.4866H0V58.3606H2ZM1 52.4866H11.304V50.4866H1V52.4866ZM1 65.8481V64.8481H0V65.8481H1ZM11.304 65.8481H12.304V64.8481H11.304V65.8481ZM10.842 71.5741L9.92103 71.1845H9.92103L10.842 71.5741ZM9.61 73.3241L8.96031 72.5639L8.95247 72.5707L9.61 73.3241ZM7.888 74.3041L8.19582 75.2556H8.19582L7.888 74.3041ZM3.898 74.1921L4.31181 73.2817L4.30544 73.2789L3.898 74.1921ZM2.33 73.0721L1.58739 73.7419L1.59464 73.7498L2.33 73.0721ZM1.336 71.4201L0.394495 71.7574L0.399097 71.7697L1.336 71.4201ZM2.96 67.8781V66.8781H1.96V67.8781H2.96ZM3.156 70.4821L2.20114 70.7792L2.20413 70.7888L2.20732 70.7984L3.156 70.4821ZM3.758 71.5601L4.52051 70.9131L4.51559 70.9073L4.51058 70.9016L3.758 71.5601ZM4.738 72.2601L5.12417 71.3376L5.11319 71.3332L4.738 72.2601ZM7.748 72.1761L7.30079 71.2817L7.28902 71.2876L7.27741 71.2938L7.748 72.1761ZM8.742 71.3641L7.93627 70.7717L7.92827 70.7829L8.742 71.3641ZM9.218 70.3841L8.25448 70.1165L8.25101 70.129L8.24786 70.1416L9.218 70.3841ZM9.358 67.8781H10.358V66.8781H9.358V67.8781ZM1 66.8481H11.304V64.8481H1V66.8481ZM10.304 65.8481V68.9281H12.304V65.8481H10.304ZM10.304 68.9281C10.304 69.8698 10.1634 70.6116 9.92103 71.1845L11.763 71.9638C12.1366 71.0806 12.304 70.0584 12.304 68.9281H10.304ZM9.92103 71.1845C9.6632 71.7939 9.33716 72.2419 8.96035 72.5639L10.2597 74.0844C10.9095 73.529 11.4048 72.8104 11.763 71.9638L9.92103 71.1845ZM8.95247 72.5707C8.53886 72.9317 8.08328 73.1899 7.58018 73.3527L8.19582 75.2556C8.96206 75.0077 9.65447 74.6126 10.2675 74.0776L8.95247 72.5707ZM7.58018 73.3527C7.04136 73.527 6.50578 73.6121 5.97 73.6121L5.97 75.6121C6.72223 75.6121 7.46531 75.4919 8.19582 75.2556L7.58018 73.3527ZM5.97 73.6121C5.32869 73.6121 4.78181 73.4954 4.3118 73.2818L3.4842 75.1025C4.24619 75.4489 5.08065 75.6121 5.97 75.6121L5.97 73.6121ZM4.30544 73.2789C3.81962 73.0621 3.40942 72.7678 3.06536 72.3944L1.59464 73.7498C2.12791 74.3285 2.76305 74.7808 3.49056 75.1054L4.30544 73.2789ZM3.07257 72.4024C2.73107 72.0237 2.46405 71.5828 2.2729 71.0705L0.399097 71.7697C0.67462 72.5081 1.07027 73.1685 1.58743 73.7419L3.07257 72.4024ZM2.27742 71.0829C2.09423 70.5715 2 70.0234 2 69.4321H0C0 70.2408 0.129766 71.0181 0.394576 71.7574L2.27742 71.0829ZM2 69.4321V65.8481H0V69.4321H2ZM1.96 67.8781V69.0821H3.96V67.8781H1.96ZM1.96 69.0821C1.96 69.6798 2.03604 70.2485 2.20114 70.7792L4.11086 70.1851C4.01463 69.8757 3.96 69.5111 3.96 69.0821H1.96ZM2.20732 70.7984C2.38446 71.3298 2.64707 71.8091 3.00542 72.2186L4.51058 70.9016C4.34626 70.7138 4.20754 70.4745 4.10468 70.1659L2.20732 70.7984ZM2.99549 72.2071C3.36636 72.6442 3.82824 72.9707 4.36281 73.1871L5.11319 71.3332C4.86376 71.2322 4.67231 71.0921 4.52051 70.9131L2.99549 72.2071ZM4.35186 73.1826C4.89542 73.4101 5.48755 73.5121 6.11 73.5121V71.5121C5.70578 71.5121 5.38324 71.4462 5.12414 71.3377L4.35186 73.1826ZM6.11 73.5121C6.88253 73.5121 7.60646 73.3849 8.21859 73.0585L7.27741 71.2938C7.04954 71.4153 6.68147 71.5121 6.11 71.5121V73.5121ZM8.19521 73.0706C8.74202 72.7971 9.21071 72.4284 9.55573 71.9454L7.92827 70.7829C7.80662 70.9532 7.61264 71.1258 7.30079 71.2817L8.19521 73.0706ZM9.54765 71.9565C9.84754 71.5487 10.0686 71.105 10.1881 70.6267L8.24786 70.1416C8.19945 70.3352 8.10313 70.5449 7.93635 70.7717L9.54765 71.9565ZM10.1815 70.6518C10.2884 70.2671 10.358 69.8867 10.358 69.5301H8.358C8.358 69.6403 8.3343 69.8291 8.25448 70.1165L10.1815 70.6518ZM10.358 69.5301V67.8781H8.358V69.5301H10.358ZM9.358 66.8781H2.96V68.8781H9.358V66.8781ZM8.154 76.8449L7.76171 77.7647L8.154 76.8449ZM9.834 77.9649L10.5343 77.2511L10.5342 77.251L9.834 77.9649ZM10.996 79.6449L11.9109 79.2413H11.9109L10.996 79.6449ZM10.996 83.7189L11.9109 84.1226H11.9109L10.996 83.7189ZM9.834 85.3989L9.13366 84.6851L9.12686 84.6918L9.12019 84.6986L9.834 85.3989ZM8.154 86.5469L7.76168 85.627L7.75036 85.632L8.154 86.5469ZM4.094 86.5469L4.49767 85.6319L4.48629 85.6271L4.094 86.5469ZM2.414 85.3989L1.70006 86.0991L1.70019 86.0993L2.414 85.3989ZM1.294 83.7189L0.374157 84.1112L1.294 83.7189ZM1.294 79.6449L2.21384 80.0372L1.294 79.6449ZM2.414 77.9649L1.71379 77.251L1.70686 77.2578L1.70006 77.2647L2.414 77.9649ZM4.094 76.8449L4.48629 77.7647H4.48629L4.094 76.8449ZM4.85 78.7769L4.48234 77.8469L4.46913 77.8522L4.45608 77.8578L4.85 78.7769ZM3.8 79.4629L3.11532 78.7341L3.10394 78.7448L3.09289 78.7558L3.8 79.4629ZM3.1 80.4849L2.18432 80.0829L2.18085 80.091L3.1 80.4849ZM3.1 82.9769L4.01568 82.5749L4.01192 82.5665L3.1 82.9769ZM3.8 83.9709L3.11606 84.7004L3.12165 84.7057L3.12733 84.7108L3.8 83.9709ZM4.85 84.6289L4.47479 85.5559L4.48234 85.5589L4.85 84.6289ZM7.44 84.6149L7.07234 83.6849L7.06306 83.6886L7.05386 83.6925L7.44 84.6149ZM8.49 83.9429L7.81733 83.203L7.80559 83.2136L7.79421 83.2247L8.49 83.9429ZM9.204 82.9489L8.28836 82.5469L9.204 82.9489ZM8.49 79.4489L7.79421 80.1671L7.79972 80.1725L7.80533 80.1778L8.49 79.4489ZM7.44 78.7769L7.07234 79.7069H7.07234L7.44 78.7769ZM6.138 77.4389C6.71638 77.4389 7.25458 77.5485 7.76171 77.7647L8.54629 75.9251C7.78408 75.6 6.97829 75.4389 6.138 75.4389L6.138 77.4389ZM7.76171 77.7647C8.28357 77.9873 8.73873 78.2914 9.13379 78.6788L10.5342 77.251C9.9586 76.6864 9.29377 76.2438 8.54629 75.9251L7.76171 77.7647ZM9.13366 78.6787C9.53768 79.0751 9.85223 79.5298 10.0811 80.0485L11.9109 79.2413C11.5798 78.4907 11.1197 77.8254 10.5343 77.2511L9.13366 78.6787ZM10.0811 80.0485C10.3022 80.5498 10.416 81.0929 10.416 81.6889H12.416C12.416 80.8289 12.2498 80.0094 11.9109 79.2413L10.0811 80.0485ZM10.416 81.6889C10.416 82.2737 10.3029 82.8124 10.0811 83.3153L11.9109 84.1226C12.2491 83.3561 12.416 82.5414 12.416 81.6889H10.416ZM10.0811 83.3153C9.85223 83.834 9.53768 84.2887 9.13366 84.6851L10.5343 86.1127C11.1197 85.5384 11.5798 84.8732 11.9109 84.1226L10.0811 83.3153ZM9.12019 84.6986C8.7262 85.1001 8.27532 85.408 7.76171 85.6271L8.54629 87.4668C9.30201 87.1445 9.97113 86.687 10.5478 86.0993L9.12019 84.6986ZM7.75036 85.632C7.24578 85.8546 6.71156 85.9669 6.138 85.9669V87.9669C6.98311 87.9669 7.79289 87.7992 8.55764 87.4618L7.75036 85.632ZM6.138 85.9669C5.54198 85.9669 4.99887 85.8531 4.49764 85.632L3.69036 87.4618C4.45846 87.8007 5.27802 87.9669 6.138 87.9669V85.9669ZM4.48629 85.6271C3.97268 85.408 3.5218 85.1001 3.12781 84.6986L1.70019 86.0993C2.27687 86.687 2.94599 87.1445 3.70171 87.4668L4.48629 85.6271ZM3.12794 84.6987C2.74048 84.3036 2.4364 83.8485 2.21384 83.3266L0.374157 84.1112C0.692936 84.8587 1.13552 85.5235 1.70006 86.0991L3.12794 84.6987ZM2.21384 83.3266C1.99827 82.8211 1.888 82.2785 1.888 81.6889H-0.112C-0.112 82.5367 0.048399 83.3474 0.374157 84.1112L2.21384 83.3266ZM1.888 81.6889C1.888 81.0882 1.99895 80.5411 2.21384 80.0372L0.374157 79.2526C0.0477123 80.0181 -0.112 80.8336 -0.112 81.6889H1.888ZM2.21384 80.0372C2.4364 79.5153 2.74048 79.0602 3.12794 78.6651L1.70006 77.2647C1.13552 77.8403 0.692935 78.5051 0.374157 79.2526L2.21384 80.0372ZM3.11421 78.6788C3.50927 78.2914 3.96443 77.9873 4.48629 77.7647L3.70171 75.9251C2.95423 76.2438 2.2894 76.6864 1.71379 77.251L3.11421 78.6788ZM4.48629 77.7647C4.99016 77.5499 5.53727 77.4389 6.138 77.4389L6.138 75.4389C5.28273 75.4389 4.46717 75.5986 3.70171 75.9251L4.48629 77.7647ZM6.138 77.5389C5.5624 77.5389 5.0076 77.6393 4.48234 77.8469L5.21766 79.7069C5.49507 79.5972 5.79893 79.5389 6.138 79.5389V77.5389ZM4.45608 77.8578C3.95781 78.0713 3.50919 78.3641 3.11532 78.7341L4.48468 80.1918C4.70681 79.9831 4.95819 79.8185 5.24392 79.6961L4.45608 77.8578ZM3.09289 78.7558C2.70732 79.1414 2.40285 79.5852 2.18436 80.0829L4.01564 80.8869C4.13315 80.6192 4.29535 80.3818 4.50711 80.17L3.09289 78.7558ZM2.18085 80.091C1.95573 80.6163 1.848 81.1761 1.848 81.7589H3.848C3.848 81.4271 3.90827 81.1375 4.01915 80.8788L2.18085 80.091ZM1.848 81.7589C1.848 82.3288 1.95795 82.8759 2.18808 83.3873L4.01192 82.5665C3.90605 82.3313 3.848 82.0664 3.848 81.7589H1.848ZM2.18436 83.3789C2.40551 83.8826 2.71674 84.3261 3.11606 84.7004L4.48394 83.2414C4.28593 83.0557 4.13049 82.8365 4.01564 82.5749L2.18436 83.3789ZM3.12733 84.7108C3.52408 85.0715 3.97517 85.3536 4.47481 85.5559L5.22519 83.702C4.94083 83.5869 4.69192 83.4303 4.47267 83.231L3.12733 84.7108ZM4.48234 85.5589C5.0076 85.7665 5.5624 85.8669 6.138 85.8669V83.8669C5.79893 83.8669 5.49507 83.8086 5.21766 83.6989L4.48234 85.5589ZM6.138 85.8669C6.72751 85.8669 7.29383 85.7602 7.82614 85.5373L7.05386 83.6925C6.7835 83.8056 6.48182 83.8669 6.138 83.8669V85.8669ZM7.80766 85.5449C8.32651 85.3397 8.78915 85.0454 9.1858 84.6611L7.79421 83.2247C7.59352 83.4191 7.35616 83.5727 7.07234 83.6849L7.80766 85.5449ZM9.16267 84.6828C9.5749 84.3081 9.89549 83.8615 10.1196 83.3509L8.28836 82.5469C8.17651 82.8017 8.0211 83.0177 7.81733 83.203L9.16267 84.6828ZM10.1196 83.3509C10.3472 82.8326 10.456 82.2792 10.456 81.7029H8.456C8.456 82.0226 8.3968 82.2999 8.28836 82.5469L10.1196 83.3509ZM10.456 81.7029C10.456 81.1266 10.3472 80.5732 10.1196 80.0549L8.28836 80.8589C8.3968 81.1059 8.456 81.3832 8.456 81.7029H10.456ZM10.1196 80.0549C9.89685 79.5474 9.57978 79.1006 9.17468 78.7201L7.80533 80.1778C8.01622 80.3759 8.17515 80.601 8.28836 80.8589L10.1196 80.0549ZM9.1858 78.7307C8.78915 78.3464 8.32651 78.0521 7.80766 77.8469L7.07234 79.7069C7.35616 79.8191 7.59352 79.9727 7.79421 80.1671L9.1858 78.7307ZM7.80766 77.8469C7.28006 77.6384 6.72023 77.5389 6.138 77.5389V79.5389C6.4891 79.5389 6.79728 79.5981 7.07234 79.7069L7.80766 77.8469ZM11.234 87.6948H12.234V86.2356L10.8731 86.7622L11.234 87.6948ZM11.234 90.0748L11.5558 91.0216L12.234 90.7911V90.0748H11.234ZM4.766 92.2728L3.84893 91.8741L2.94772 93.9469L5.08776 93.2196L4.766 92.2728ZM4.906 91.9508L5.2788 91.0229L4.3766 90.6604L3.98893 91.5521L4.906 91.9508ZM9.68 93.8688L9.99908 94.8165L12.5683 93.9515L10.0528 92.9409L9.68 93.8688ZM6.894 94.8068L6.47166 95.7132L6.83412 95.8821L7.21308 95.7545L6.894 94.8068ZM0.524 91.8388L0.163142 90.9062L-2.02678 91.7535L0.10166 92.7452L0.524 91.8388ZM11.234 92.8608H12.234V91.3823L10.8618 91.9327L11.234 92.8608ZM11.234 94.8768L11.6093 95.8037L12.234 95.5507V94.8768H11.234ZM4.976 97.4108L3.98763 97.2587L3.72001 98.9982L5.35132 98.3377L4.976 97.4108ZM5.032 97.0468L5.32351 96.0902L4.21917 95.7537L4.04363 96.8947L5.032 97.0468ZM11.234 98.9368H12.234L12.234 98.1961L11.5255 97.9802L11.234 98.9368ZM11.234 101.121L10.8852 102.058L12.234 102.56V101.121H11.234ZM0.552 97.1448L0.17977 96.2167L-2.22124 97.1796L0.203166 98.082L0.552 97.1448ZM10.234 87.6948V90.0748H12.234V87.6948H10.234ZM10.9122 89.128L4.44424 91.326L5.08776 93.2196L11.5558 91.0216L10.9122 89.128ZM5.68307 92.6715L5.82307 92.3495L3.98893 91.5521L3.84893 91.8741L5.68307 92.6715ZM4.5332 92.8787L9.3072 94.7967L10.0528 92.9409L5.2788 91.0229L4.5332 92.8787ZM9.36092 92.9211L6.57492 93.8591L7.21308 95.7545L9.99908 94.8165L9.36092 92.9211ZM7.31634 93.9004L0.94634 90.9324L0.10166 92.7452L6.47166 95.7132L7.31634 93.9004ZM0.884857 92.7714L11.5949 88.6274L10.8731 86.7622L0.163142 90.9062L0.884857 92.7714ZM10.234 92.8608V94.8768H12.234V92.8608H10.234ZM10.8587 93.9499L4.60068 96.4839L5.35132 98.3377L11.6093 95.8037L10.8587 93.9499ZM5.96437 97.5629L6.02037 97.1989L4.04363 96.8947L3.98763 97.2587L5.96437 97.5629ZM4.74049 98.0034L10.9425 99.8934L11.5255 97.9802L5.32351 96.0902L4.74049 98.0034ZM10.234 98.9368V101.121H12.234V98.9368H10.234ZM11.5828 100.184L0.900834 96.2076L0.203166 98.082L10.8852 102.058L11.5828 100.184ZM0.92423 98.0729L11.6062 93.7889L10.8618 91.9327L0.17977 96.2167L0.92423 98.0729ZM0.58 112.551L-0.162103 111.881L-0.42 112.166V112.551H0.58ZM7.636 104.739L8.5092 105.226L6.8939 104.069L7.636 104.739ZM7.3 105.341L7.30667 106.341L7.88926 106.337L8.1732 105.828L7.3 105.341ZM1 105.383H0V106.39L1.00667 106.383L1 105.383ZM1 103.325V102.325H0V103.325H1ZM11.71 103.325H12.71V102.325H11.71V103.325ZM11.71 103.409L12.4461 104.086L12.71 103.799V103.409H11.71ZM4.682 111.053L3.76584 110.652L5.41815 111.73L4.682 111.053ZM4.878 110.605L4.87146 109.605L4.22212 109.609L3.96184 110.204L4.878 110.605ZM11.304 110.563H12.304V109.556L11.2975 109.563L11.304 110.563ZM11.304 112.607V113.607H12.304V112.607H11.304ZM0.58 112.607H-0.42V113.607H0.58V112.607ZM1.3221 113.221L8.3781 105.409L6.8939 104.069L-0.162103 111.881L1.3221 113.221ZM6.7628 104.252L6.4268 104.854L8.1732 105.828L8.5092 105.226L6.7628 104.252ZM7.29333 104.341L0.993334 104.383L1.00667 106.383L7.30667 106.341L7.29333 104.341ZM2 105.383V103.325H0V105.383H2ZM1 104.325H11.71V102.325H1V104.325ZM10.71 103.325V103.409H12.71V103.325H10.71ZM10.9739 102.732L3.94585 110.376L5.41815 111.73L12.4461 104.086L10.9739 102.732ZM5.59816 111.454L5.79416 111.006L3.96184 110.204L3.76584 110.652L5.59816 111.454ZM4.88454 111.605L11.3105 111.563L11.2975 109.563L4.87146 109.605L4.88454 111.605ZM10.304 110.563L10.304 112.607H12.304L12.304 110.563H10.304ZM11.304 111.607H0.58L0.58 113.607H11.304L11.304 111.607ZM1.58 112.607V112.551H-0.42V112.607H1.58Z" fill="white"/>
<line x1="5.5" y1="131" x2="5.5" y2="189" stroke="white"/>
<line y1="-0.5" x2="9.19703" y2="-0.5" transform="matrix(0.5806 -0.814189 0.934477 0.356023 6.38281 188.284)" stroke="white"/>
</svg>
